<svg width="281" height="99" viewBox="0 0 281 99" fill="none" xmlns="http://www.w3.org/2000/svg">
<g clip-path="url(#clip0_1_2)">
<path d="M280.92 58.23H52.75V89.35H280.92V58.23Z" fill="white"/>
<path fill-rule="evenodd" clip-rule="evenodd" d="M-5.13342e-06 44.42C-0.00593912 35.6265 2.59647 27.0288 7.47797 19.7147C12.3595 12.4005 19.3007 6.69859 27.4235 3.33026C35.5464 -0.0380659 44.4857 -0.921437 53.1107 0.791908C61.7357 2.50525 69.6587 6.73832 75.8773 12.9556C82.096 19.1728 86.3308 27.0949 88.0461 35.7195C89.7614 44.3441 88.8801 53.2836 85.5136 61.4072C82.1471 69.5308 76.4467 76.4733 69.1337 81.3565C61.8206 86.2396 53.2235 88.844 44.43 88.84C32.6482 88.84 21.3487 84.1604 13.0168 75.8303C4.68482 67.5002 0.00264664 56.2018 -5.13342e-06 44.42" fill="white"/>
<path fill-rule="evenodd" clip-rule="evenodd" d="M1.80999 44.42C1.79812 35.9832 4.28933 27.7325 8.96833 20.7121C13.6473 13.6916 20.3038 8.21704 28.0954 4.98111C35.8869 1.74517 44.4633 0.893363 52.7392 2.53348C61.015 4.17359 68.6183 8.2319 74.5868 14.1948C80.5553 20.1577 84.6208 27.7572 86.2687 36.0315C87.9166 44.3058 87.0728 52.883 83.8442 60.6776C80.6156 68.4722 75.1472 75.1338 68.1312 79.8194C61.1151 84.505 52.8668 87.0039 44.43 87C33.1334 87 22.2989 82.5152 14.3072 74.531C6.31559 66.5469 1.8206 55.7166 1.80999 44.42" fill="white"/>
<path fill-rule="evenodd" clip-rule="evenodd" d="M2.61 44.42C2.60802 36.1484 5.05904 28.0619 9.65308 21.1833C14.2471 14.3047 20.7778 8.94302 28.4193 5.77623C36.0607 2.60944 44.4696 1.77984 52.5826 3.39234C60.6955 5.00485 68.148 8.98702 73.9977 14.8353C79.8473 20.6835 83.8313 28.1351 85.4457 36.2476C87.0602 44.3602 86.2326 52.7693 83.0676 60.4115C79.9026 68.0537 74.5425 74.5857 67.665 79.1814C60.7875 83.777 52.7016 86.23 44.43 86.23C38.9386 86.2313 33.5007 85.1508 28.4269 83.0503C23.3532 80.9497 18.7429 77.8702 14.8594 73.9877C10.9759 70.1051 7.89533 65.4956 5.79356 60.4223C3.69178 55.349 2.61 49.9114 2.61 44.42" fill="#C6C6C6"/>
<path fill-rule="evenodd" clip-rule="evenodd" d="M34.24 32.36C34.01 31.98 33.77 31.57 33.52 31.22C30.91 27.7 32.87 26.84 32.35 24.93C31.64 22.26 27.19 21.93 29.53 16.69C29.7021 17.7003 30.143 18.6456 30.8063 19.4269C31.4696 20.2081 32.331 20.7964 33.3 21.13C34.88 21.53 37.05 22.65 37.1 25.02C37.16 28.02 38.74 28.41 39.95 29.6L37.75 18.16L41.55 28.65C41.55 28.11 41.55 27.55 41.55 27.09C41.06 22.74 43.18 22.98 43.69 21.09C44.41 18.42 40.69 15.9 45.37 12.54C45.009 13.4973 44.9114 14.5338 45.0873 15.5416C45.2632 16.5494 45.7061 17.4916 46.37 18.27C47.54 19.4 48.86 21.46 47.71 23.53C46.15 26.38 47.37 27.48 47.78 29.28L51.57 18.28L49.57 29.74C49.82 29.27 50.17 28.79 50.37 28.33C52.11 24.33 53.84 25.57 55.24 24.18C57.19 22.18 55.24 18.18 60.96 17.61C60.1673 18.2636 59.5639 19.1173 59.2122 20.0826C58.8605 21.0479 58.7735 22.0897 58.96 23.1C59.41 24.66 59.52 27.1 57.49 28.33C54.84 29.93 55.14 31.33 54.59 32.93L63.51 25L55.9 34C56.4306 33.8065 56.9427 33.5655 57.43 33.28C60.95 30.68 61.81 32.63 63.72 32.12C66.39 31.41 66.72 26.96 71.96 29.3C70.9501 29.4731 70.0052 29.9143 69.2242 30.5775C68.4431 31.2407 67.8546 32.1015 67.52 33.07C67.13 34.65 66 36.81 63.63 36.86C60.74 36.92 60.37 38 59.2 39.07L70.45 36.99L59.74 41C60.17 40.95 60.63 40.94 61.03 40.9C65.39 40.4 65.15 42.52 67.03 43.04C69.71 43.75 72.22 40.04 75.58 44.71C74.6219 44.3543 73.5865 44.2595 72.5798 44.4352C71.573 44.6109 70.631 45.0508 69.85 45.71C68.72 46.89 66.66 48.2 64.59 47.06C61.82 45.54 60.84 46.65 59.2 47.06L70.32 51.06L58.81 48.93C59.2318 49.2528 59.6726 49.55 60.13 49.82C64.13 51.56 62.89 53.29 64.28 54.68C66.28 56.68 70.28 54.68 70.85 60.41C70.2007 59.6148 69.3491 59.0093 68.3847 58.6574C67.4203 58.3054 66.3789 58.22 65.37 58.41C63.8 58.86 61.37 58.96 60.13 56.94C58.54 54.31 57.32 54.3 55.78 53.81L63.55 62.88L55 55.7C55.1911 56.1236 55.4151 56.5315 55.67 56.92C58.27 60.44 56.32 61.3 56.83 63.21C57.54 65.88 61.99 66.21 59.65 71.45C59.4759 70.4349 59.031 69.4855 58.3621 68.7023C57.6933 67.919 56.8254 67.3309 55.85 67C54.27 66.61 52.11 65.48 52.06 63.11C51.99 60.11 51.06 59.76 49.9 58.52L51.52 69.52L47.93 59.63C47.93 60 47.93 60.38 47.93 60.71C48.42 65.06 46.3 64.83 45.79 66.71C45.07 69.38 48.79 71.9 44.11 75.26C44.471 74.3028 44.5686 73.2662 44.3927 72.2584C44.2168 71.2506 43.7739 70.3084 43.11 69.53C41.94 68.4 40.62 66.34 41.77 64.26C43.36 61.37 42.27 60.47 41.95 58.64L37.95 70.08L39.95 58.76C39.75 59.16 39.52 59.57 39.35 59.95C37.61 63.95 35.88 62.71 34.49 64.1C32.49 66.1 34.49 70.1 28.76 70.67C29.5535 70.0194 30.1578 69.1676 30.5096 68.2036C30.8614 67.2396 30.9479 66.1988 30.76 65.19C30.31 63.62 30.2 61.19 32.23 59.95C34.75 58.43 34.54 57.03 35 55.47L25.84 63.3L32.66 54.42C32.3332 54.5754 32.0189 54.756 31.72 54.96C28.2 57.56 27.34 55.61 25.43 56.12C22.76 56.83 22.43 61.28 17.19 58.94C18.1999 58.7669 19.1447 58.3257 19.9258 57.6625C20.7069 56.9993 21.2954 56.1385 21.63 55.17C22.02 53.59 23.15 51.43 25.52 51.38C28.47 51.31 29.32 49.93 30.52 48.76L18.72 51L30 46.92C29.4 47.03 28.63 47.05 28 47.12C23.65 47.62 23.88 45.5 22 44.99C19.33 44.27 16.81 47.99 13.45 43.31C14.4076 43.6689 15.4437 43.7654 16.451 43.5896C17.4584 43.4137 18.4006 42.972 19.18 42.31C20.31 41.13 22.38 39.82 24.45 40.96C27.04 42.39 28.12 41.51 29.74 41.04L18.82 37L30.13 39C29.7118 38.7486 29.2812 38.5184 28.84 38.31C24.84 36.56 26.09 34.84 24.69 33.44C22.69 31.49 18.69 33.44 18.13 27.71C18.7806 28.5035 19.6325 29.1078 20.5964 29.4596C21.5604 29.8114 22.6012 29.8979 23.61 29.71C25.18 29.26 27.61 29.15 28.84 31.18C30.33 33.63 31.6 33.66 33.15 34.08L25.8 25.25L34.24 32.36Z" fill="white"/>
<path d="M81 49.57C81.6593 49.4167 82.3271 49.3032 83 49.23V49.17C82.3758 48.9221 81.7649 48.6417 81.17 48.33L81 49.57ZM78.88 50.91L79 49.82C79.4404 49.8113 79.879 49.7611 80.31 49.67L80.5 48.09C80.1057 47.895 79.6939 47.7377 79.27 47.62L79.39 46.62C79.48 46.62 80.18 46.99 81.48 47.69C82.1736 48.0913 82.8917 48.4487 83.63 48.76L83.47 50C82.688 50.0964 81.913 50.2434 81.15 50.44C80.3948 50.6481 79.6263 50.8051 78.85 50.91H78.88ZM82.59 44.84C83.05 44.84 83.27 44.54 83.25 43.94C83.2449 43.7482 83.2215 43.5573 83.18 43.37C82.82 43.37 82.36 43.44 81.79 43.46C81.7845 43.5666 81.7845 43.6734 81.79 43.78C81.79 44.5 82.06 44.86 82.56 44.84H82.59ZM79.48 46.24V45.24C79.9962 45.0837 80.4902 44.8619 80.95 44.58C81.0488 44.4943 81.1251 44.3856 81.1721 44.2636C81.2192 44.1416 81.2357 44.0099 81.22 43.88C81.22 43.75 81.22 43.62 81.22 43.5L79.44 43.59V42.59C80.13 42.59 80.91 42.59 81.77 42.59C82.63 42.59 83.32 42.52 83.9 42.47V43.07C83.9 43.14 83.9 43.28 83.9 43.5C83.9 43.72 83.9 43.92 83.9 44.1C83.9 45.1 83.6 45.69 82.9 45.71C82.6307 45.7261 82.3638 45.6509 82.1425 45.4967C81.9211 45.3425 81.7582 45.1182 81.68 44.86V44.86C81.5922 45.128 81.4065 45.353 81.16 45.49C80.6077 45.7785 80.0364 46.0291 79.45 46.24H79.48ZM79.3 41.41L79.21 40.41C79.92 40.41 80.7 40.32 81.54 40.25C82.38 40.18 83.08 40.1 83.66 40.02L83.75 41.02C83.17 41.02 82.46 41.09 81.62 41.16C80.78 41.23 80 41.32 79.27 41.41H79.3ZM79.84 39.25L79.1 39.36L78.54 36.5C79.22 36.39 79.99 36.26 80.84 36.09C81.69 35.92 82.36 35.78 82.93 35.64L83.46 38.38L82.71 38.49C82.62 37.81 82.52 37.19 82.41 36.64C82.1 36.73 81.74 36.81 81.31 36.89C81.4033 37.3567 81.5133 37.8567 81.64 38.39L80.94 38.53C80.86 38 80.77 37.53 80.68 37.01C80.22 37.1 79.8 37.19 79.4 37.29C79.49 37.91 79.64 38.56 79.81 39.25H79.84ZM81 33.44C81.43 33.29 81.55 32.94 81.36 32.38C81.3 32.1981 81.2195 32.0236 81.12 31.86C80.8 32 80.36 32.16 79.83 32.35C79.83 32.47 79.9 32.57 79.92 32.65C80.14 33.34 80.5 33.6 81 33.44ZM78.43 35.68L78.1 34.68C78.5491 34.3749 78.9589 34.0155 79.32 33.61C79.3804 33.496 79.412 33.369 79.412 33.24C79.412 33.111 79.3804 32.984 79.32 32.87L79.2 32.51C78.64 32.7 78.08 32.91 77.52 33.12L77.21 32.22C77.87 32.02 78.62 31.78 79.44 31.5C80.26 31.22 80.89 30.98 81.44 30.77L81.63 31.33C81.63 31.39 81.7 31.53 81.78 31.73C81.86 31.93 81.93 32.12 81.99 32.3C82.33 33.3 82.16 33.91 81.48 34.14C81.226 34.2331 80.948 34.2384 80.6906 34.155C80.4332 34.0717 80.2112 33.9044 80.06 33.68V33.68C80.0571 33.9606 79.946 34.2292 79.75 34.43C79.3383 34.8826 78.8901 35.3007 78.41 35.68H78.43ZM77.57 31L76.88 31.29L75.64 28.65C76.28 28.38 76.99 28.07 77.78 27.7C78.57 27.33 79.17 27.03 79.69 26.76L80.87 29.28L80.17 29.57C79.92 28.93 79.67 28.36 79.43 27.85C79.15 28.01 78.82 28.18 78.43 28.36C78.63 28.79 78.86 29.25 79.11 29.73L78.46 30.04C78.25 29.54 78.05 29.04 77.84 28.63C77.42 28.83 77.03 29.02 76.67 29.21C76.94 29.79 77.24 30.38 77.57 31ZM77.42 25.33C77.83 25.06 77.86 24.65 77.5 24.11C77.4083 23.9654 77.301 23.8312 77.18 23.71C76.83 23.96 76.43 24.24 75.97 24.54C76.0002 24.5984 76.0336 24.6552 76.07 24.71C76.52 25.42 77 25.62 77.42 25.34V25.33ZM78.06 25.97C77.8674 26.1104 77.641 26.1974 77.4039 26.222C77.1667 26.2466 76.9273 26.2079 76.71 26.11C76.2394 25.8968 75.8427 25.5488 75.57 25.11L75.45 24.92C75.09 25.1467 74.62 25.48 74.04 25.92L73.51 25C74.08 24.66 74.75 24.25 75.51 23.76C76.27 23.27 76.79 22.91 77.27 22.56L77.6 23.07C77.6 23.14 77.74 23.27 77.87 23.47C78 23.67 78.13 23.84 78.22 23.99C78.447 24.3044 78.5694 24.6822 78.57 25.07C78.5808 25.2572 78.5386 25.4437 78.4485 25.6082C78.3583 25.7726 78.2237 25.9084 78.06 26V25.97ZM71.71 21.22L71.14 21.73L69.14 19.63C69.66 19.17 70.23 18.63 70.86 18.04C71.49 17.45 71.96 16.95 72.36 16.52L74.3 18.52L73.7 19C73.2533 18.48 72.8333 18.02 72.44 17.62C72.23 17.86 71.96 18.13 71.65 18.43C71.99 18.77 72.35 19.13 72.75 19.51L72.23 20C71.88 19.6 71.53 19.23 71.23 18.88L70.31 19.8C70.71 20.28 71.18 20.75 71.71 21.23V21.22ZM69.11 16.6C69.3787 16.3011 69.5251 15.9119 69.52 15.51C69.5104 15.2919 69.4503 15.0791 69.3445 14.8882C69.2386 14.6973 69.0899 14.5336 68.91 14.41C68.8096 14.3175 68.6989 14.237 68.58 14.17C68.31 14.53 68.01 14.91 67.69 15.29C67.37 15.67 67 16.13 66.69 16.56C66.7829 16.6763 66.8867 16.7834 67 16.88C67.1468 17.0242 67.3259 17.1313 67.5225 17.1922C67.7191 17.253 67.9274 17.266 68.13 17.23C68.5164 17.1378 68.8612 16.9197 69.11 16.61V16.6ZM69.92 17.09C69.525 17.5777 68.961 17.899 68.34 17.99C68.0171 18.0403 67.687 18.0159 67.375 17.9189C67.063 17.8218 66.7774 17.6546 66.54 17.43C66.28 17.21 65.93 16.9 65.49 16.5C65.96 15.98 66.49 15.4 67.03 14.73C67.57 14.06 68.03 13.54 68.36 13.07L68.82 13.46L69.17 13.73L69.46 13.97C69.7348 14.1531 69.9665 14.3937 70.1391 14.6751C70.3118 14.9565 70.4213 15.2721 70.46 15.6C70.481 16.151 70.2874 16.6888 69.92 17.1V17.09ZM61.82 11.86C62.01 10.63 62.12 9.97 62.16 9.86C62.16 9.94 61.64 10.42 60.74 11.29L61.82 11.86ZM62.35 14.31L61.35 13.81C61.4899 13.3896 61.5936 12.958 61.66 12.52L60.24 11.8C59.9197 12.1057 59.6284 12.4404 59.37 12.8L58.45 12.33C58.993 11.7717 59.5637 11.241 60.16 10.74C60.7752 10.2213 61.3596 9.667 61.91 9.08L63.07 9.66C62.9011 10.4313 62.7842 11.213 62.72 12C62.6446 12.7802 62.5211 13.555 62.35 14.32V14.31ZM58.28 11.31L57.98 12.05C57.6486 12.0388 57.3196 11.9884 57 11.9C56.6812 11.8227 56.3826 11.6783 56.124 11.4766C55.8653 11.2748 55.6526 11.0203 55.5 10.73C55.3719 10.4614 55.2997 10.1695 55.2877 9.87217C55.2756 9.57481 55.324 9.2781 55.43 9C55.6142 8.40325 56.023 7.90132 56.57 7.6C56.8635 7.44044 57.1883 7.34702 57.5217 7.32629C57.8551 7.30556 58.189 7.35802 58.5 7.48C58.7535 7.55769 58.9956 7.66866 59.22 7.81L58.86 8.53C58.6479 8.37012 58.4116 8.24521 58.16 8.16C57.9702 8.08533 57.7648 8.05903 57.5623 8.08347C57.3598 8.1079 57.1666 8.18231 57 8.3C56.6832 8.53805 56.4518 8.87201 56.3401 9.25218C56.2284 9.63235 56.2424 10.0384 56.38 10.41C56.4654 10.6044 56.5932 10.7772 56.7542 10.9156C56.9151 11.0541 57.105 11.1547 57.31 11.21C57.6244 11.3054 57.9514 11.3526 58.28 11.35V11.31ZM53.79 10.69L52.85 10.44C53.07 9.76 53.28 9.02 53.5 8.2C53.72 7.38 53.89 6.7 54.01 6.13L54.95 6.38C54.77 6.92666 54.57 7.59333 54.35 8.38C54.13 9.3 53.94 10.05 53.79 10.73V10.69ZM52.24 9.57L52.08 10.3L49.27 9.81C49.41 9.2 49.56 8.44 49.72 7.51C49.88 6.58 50 6 50.05 5.41L51.05 5.57C50.93 6.08 50.79 6.78 50.64 7.67C50.52 8.34 50.41 8.88 50.31 9.27C50.8967 9.38333 51.54 9.48333 52.24 9.57ZM47.53 3.71C47.3941 3.87682 47.2398 4.02778 47.07 4.16C46.8937 4.3061 46.7267 4.46308 46.57 4.63H46C46.0719 4.46152 46.1661 4.30345 46.28 4.16C46.3876 4.01581 46.4813 3.8618 46.56 3.7L47.53 3.71ZM47.36 7.29C47.3839 6.86948 47.2561 6.45436 47 6.12C46.8981 5.97892 46.7644 5.86378 46.6098 5.78388C46.4552 5.70397 46.284 5.66153 46.11 5.66C45.9421 5.65363 45.7752 5.6897 45.6249 5.76485C45.4746 5.84001 45.3457 5.95183 45.25 6.09C44.9978 6.41153 44.8668 6.81157 44.88 7.22C44.8495 7.63813 44.9702 8.05331 45.22 8.39C45.324 8.53127 45.4595 8.64639 45.6157 8.72623C45.7719 8.80607 45.9446 8.84845 46.12 8.85C46.2912 8.85981 46.4621 8.82541 46.6162 8.75011C46.7704 8.67481 46.9025 8.56113 47 8.42C47.2428 8.09409 47.3695 7.69629 47.36 7.29ZM48.36 7.2C48.3665 7.52048 48.3098 7.8391 48.1931 8.13765C48.0764 8.43621 47.9021 8.70885 47.68 8.94C47.4689 9.17091 47.2077 9.35045 46.9165 9.46485C46.6253 9.57925 46.3118 9.62548 46 9.6C45.7159 9.60357 45.4342 9.54655 45.1739 9.43275C44.9135 9.31894 44.6804 9.15096 44.49 8.94C44.2901 8.72033 44.1359 8.46309 44.0363 8.18325C43.9367 7.90342 43.8938 7.60658 43.91 7.31C43.8958 6.66742 44.1367 6.04536 44.58 5.58C44.7843 5.35898 45.0339 5.18469 45.3118 5.06906C45.5897 4.95342 45.8892 4.89916 46.19 4.91C46.4741 4.90643 46.7558 4.96344 47.0161 5.07725C47.2765 5.19105 47.5096 5.35903 47.7 5.57C47.9048 5.78757 48.0643 6.04377 48.169 6.32363C48.2737 6.60349 48.3217 6.90141 48.31 7.2H48.36ZM43 5V5.74C42.54 5.74 42.11 5.74 41.7 5.74C41.7 6.17 41.76 6.65 41.8 7.18C41.8 8 41.92 8.78 42 9.51L41 9.58C41 8.84666 40.96 8.06666 40.88 7.24C40.84 6.72 40.8 6.24 40.76 5.8C40.44 5.8 40 5.85 39.44 5.95V5.21L43 5ZM37.66 8.16C37.2938 7.59262 36.9599 7.00502 36.66 6.4H36.6C36.5732 7.06963 36.5098 7.7373 36.41 8.4L37.66 8.16ZM39.66 9.72L38.54 10C38.3998 9.57044 38.219 9.15523 38 8.76L36.45 9.09C36.384 9.52674 36.3672 9.96951 36.4 10.41L35.4 10.63C35.4 10.54 35.49 9.77 35.72 8.31C35.8633 7.51998 35.9568 6.72174 36 5.92L37.27 5.65C37.6112 6.34406 38.0022 7.01248 38.44 7.65C38.8771 8.3123 39.268 9.00394 39.61 9.72H39.66ZM34.66 9.99L34.85 10.75C34.5739 10.9209 34.2785 11.0586 33.97 11.16C33.6645 11.2813 33.3373 11.3386 33.0088 11.3283C32.6802 11.318 32.3573 11.2403 32.06 11.1C31.5503 10.8171 31.1703 10.3475 31 9.79C30.8013 9.19937 30.8371 8.55498 31.1 7.99C31.2443 7.68809 31.4521 7.42095 31.7093 7.20692C31.9665 6.99288 32.2669 6.83701 32.59 6.75C32.8436 6.67122 33.1052 6.62091 33.37 6.6L33.5 7.39C33.2352 7.38758 32.9718 7.42811 32.72 7.51C32.5296 7.55668 32.3531 7.6482 32.2053 7.77692C32.0574 7.90564 31.9425 8.06784 31.87 8.25C31.7515 8.62707 31.7597 9.03256 31.8933 9.40453C32.0269 9.77651 32.2787 10.0945 32.61 10.31C32.7922 10.4187 32.9969 10.4842 33.2084 10.5015C33.4199 10.5189 33.6325 10.4875 33.83 10.41C34.1229 10.309 34.4018 10.1712 34.66 10V9.99ZM26.24 11.99C26.0493 11.6309 25.7375 11.351 25.36 11.2C25.1529 11.1361 24.9342 11.1191 24.7197 11.1502C24.5052 11.1813 24.3004 11.2598 24.12 11.38L23.78 11.6C24.02 11.99 24.26 12.4 24.5 12.84C24.74 13.28 25.04 13.79 25.32 14.25C25.4617 14.2022 25.5989 14.1419 25.73 14.07C25.9179 13.9843 26.0829 13.8554 26.2115 13.6937C26.3401 13.5321 26.4287 13.3424 26.47 13.14C26.5231 12.745 26.4421 12.3435 26.24 12V11.99ZM27 11.4C27.3068 11.9433 27.4029 12.5804 27.27 13.19C27.1996 13.5091 27.0578 13.8081 26.8551 14.0645C26.6525 14.3208 26.3943 14.5279 26.1 14.67C25.8 14.84 25.38 15.05 24.85 15.32C24.54 14.7 24.18 14.01 23.76 13.25C23.34 12.49 22.99 11.91 22.68 11.41L23.21 11.12L23.59 10.89L23.92 10.7C24.1905 10.5156 24.4971 10.3909 24.8195 10.334C25.1419 10.2771 25.4727 10.2894 25.79 10.37C26.3106 10.5453 26.7438 10.9141 27 11.4V11.4ZM21.8 15.25C21.2335 14.8958 20.6861 14.5119 20.16 14.1V14.1C20.21 14.17 20.44 14.8 20.86 15.98L21.8 15.25ZM24.25 15.81L23.38 16.48C23.072 16.1772 22.7373 15.9027 22.38 15.66L21.13 16.66C21.2698 17.0801 21.4507 17.4854 21.67 17.87L20.85 18.5C20.8033 18.4267 20.5633 17.6867 20.13 16.28C19.9147 15.5029 19.6474 14.7412 19.33 14L20.33 13.2C20.9605 13.6717 21.6183 14.1058 22.3 14.5C22.9764 14.896 23.6276 15.3335 24.25 15.81V15.81ZM18.18 18.07C17.8961 17.7786 17.5157 17.6008 17.11 17.57C16.8982 17.5755 16.6898 17.6255 16.4986 17.7168C16.3073 17.8082 16.1375 17.9387 16 18.1L15.74 18.42C16.09 18.72 16.44 19.04 16.8 19.42C17.16 19.8 17.59 20.17 18 20.52C18.12 20.4351 18.2337 20.3415 18.34 20.24C18.4924 20.1006 18.6104 19.9279 18.685 19.7354C18.7596 19.5428 18.7887 19.3356 18.77 19.13C18.7043 18.7182 18.4954 18.3428 18.18 18.07V18.07ZM18.73 17.29C19.1826 17.7182 19.4604 18.2989 19.51 18.92C19.5353 19.2479 19.4864 19.5773 19.3669 19.8837C19.2475 20.1901 19.0605 20.4657 18.82 20.69C18.59 20.93 18.25 21.26 17.82 21.69C17.34 21.19 16.82 20.63 16.17 20.03C15.52 19.43 15.05 19 14.61 18.56L15.02 18.13L15.32 17.81C15.45 17.66 15.54 17.57 15.58 17.53C15.783 17.2724 16.0389 17.0615 16.3305 16.9114C16.622 16.7613 16.9424 16.6756 17.27 16.66C17.8191 16.6767 18.3412 16.902 18.73 17.29V17.29ZM17.1 22.64L16.49 23.4C15.96 22.93 15.36 22.4 14.7 21.89C14.04 21.38 13.49 20.89 13.02 20.58L13.63 19.83C14.06 20.21 14.63 20.67 15.26 21.2C15.89 21.73 16.54 22.23 17.1 22.64ZM14.85 23.56C15.6 24.05 15.62 24.83 14.92 25.91C14.6995 26.254 14.4338 26.5668 14.13 26.84L13.58 26.29C13.864 26.0712 14.1105 25.8078 14.31 25.51C14.4664 25.2928 14.5816 25.0488 14.65 24.79C14.6675 24.7139 14.6605 24.6343 14.6299 24.5624C14.5994 24.4906 14.5469 24.4302 14.48 24.39C14.4075 24.3449 14.3257 24.3169 14.2408 24.3082C14.1559 24.2996 14.0701 24.3104 13.99 24.34C13.7156 24.4595 13.4542 24.6069 13.21 24.78C12.9552 24.9732 12.6619 25.1096 12.35 25.18C12.1956 25.2128 12.0362 25.2137 11.8814 25.1828C11.7267 25.1518 11.5799 25.0896 11.45 25C11.2973 24.9084 11.1687 24.7816 11.0748 24.6303C10.9808 24.479 10.9244 24.3075 10.91 24.13C10.9107 23.6835 11.0544 23.2489 11.32 22.89C11.5094 22.5666 11.7378 22.2677 12 22L12.57 22.52C12.3003 22.7304 12.0672 22.9838 11.88 23.27C11.59 23.72 11.56 24.02 11.8 24.18C11.8647 24.2142 11.9368 24.232 12.01 24.232C12.0832 24.232 12.1553 24.2142 12.22 24.18C12.4609 24.0644 12.6888 23.9236 12.9 23.76C13.1758 23.5537 13.4879 23.4011 13.82 23.31C13.9996 23.2757 14.1844 23.2803 14.3621 23.3234C14.5398 23.3665 14.7061 23.4472 14.85 23.56V23.56ZM10.5 27C10.1 26.79 9.76 26.94 9.5 27.46C9.40806 27.6262 9.33109 27.8002 9.27 27.98C9.59 28.13 10.01 28.33 10.51 28.6C10.5682 28.5095 10.6216 28.4161 10.67 28.32C11 27.72 11 27.28 10.5 27ZM13.9 27.35L13.42 28.25C12.8917 28.1313 12.3514 28.0742 11.81 28.08C11.6833 28.1076 11.5649 28.1645 11.4642 28.2461C11.3635 28.3277 11.2833 28.4318 11.23 28.55C11.17 28.67 11.11 28.78 11.06 28.89C11.58 29.17 12.06 29.44 12.64 29.7L12.2 30.54C11.6 30.19 10.92 29.81 10.2 29.41C9.48 29.01 8.83 28.7 8.3 28.41L8.53 28C8.53 27.94 8.63 27.81 8.72 27.62C8.81 27.43 8.91 27.2 9 27C9.49 26.07 10.05 25.77 10.69 26.11C10.9294 26.2338 11.121 26.4334 11.235 26.6777C11.349 26.9219 11.3789 27.197 11.32 27.46V27.46C11.4213 27.3616 11.5423 27.2858 11.675 27.2375C11.8077 27.1893 11.9492 27.1697 12.09 27.18C12.6981 27.2004 13.3034 27.2706 13.9 27.39V27.35ZM11.15 31.28L11.86 31.55L10.91 34.31C10.27 34.06 9.53 33.79 8.71 33.51C7.89 33.23 7.25 33.02 6.71 32.85L7.62 30.22L8.32 30.5C8.06 31.14 7.84 31.72 7.66 32.25C7.97333 32.33 8.33333 32.44 8.74 32.58C8.89 32.13 9.05 31.64 9.2 31.12L9.88 31.35C9.68 31.85 9.5 32.35 9.35 32.79C9.78 32.94 10.2 33.07 10.59 33.19C10.76 32.64 11 32 11.15 31.32V31.28ZM6.38 34.07C7.08521 34.4255 7.75491 34.8474 8.38 35.33C9.004 35.8171 9.67381 36.2424 10.38 36.6L10.16 37.52C9.37593 37.5244 8.59346 37.5913 7.82 37.72C7.0465 37.8483 6.26406 37.9152 5.48 37.92L5.73 36.86C6.339 36.9094 6.951 36.9094 7.56 36.86C8.15796 36.7994 8.75933 36.7794 9.36 36.8V36.8C8.8341 36.5601 8.32612 36.2827 7.84 35.97C7.31974 35.5877 6.75985 35.2625 6.17 35L6.38 34.07ZM9.8 39.76L9.67 40.76C8.97 40.64 8.2 40.51 7.36 40.39C6.52 40.27 5.83 40.19 5.24 40.14L5.38 39.14C5.94 39.25 6.64 39.36 7.48 39.48C8.32 39.6 9.11 39.69 9.8 39.76ZM9.53 42V42.85C8.98991 43.0754 8.47672 43.3605 8 43.7C7.38475 44.1275 6.71118 44.4643 6 44.7V44.76C6.45636 44.7364 6.91364 44.7364 7.37 44.76C7.93 44.76 8.62 44.76 9.43 44.76V45.61C8.73 45.55 7.95 45.51 7.1 45.48C6.25 45.45 5.56 45.48 4.97 45.48V44.48C5.49705 44.2854 5.995 44.0196 6.45 43.69C7.02748 43.2772 7.65606 42.9411 8.32 42.69V42.63C7.86364 42.6534 7.40637 42.6534 6.95 42.63C6.33 42.63 5.69 42.63 5.04 42.63V41.77C5.6 41.82 6.31 41.87 7.17 41.89C8.03 41.91 8.83 42 9.53 42ZM5.05 47.35C5.81 47.28 6.58 47.2 7.34 47.1C8.85 46.92 9.68 47.44 9.83 48.68C9.88196 48.9296 9.87938 49.1875 9.82242 49.4361C9.76546 49.6846 9.65548 49.9179 9.5 50.12C9.02178 50.5504 8.40332 50.7921 7.76 50.8L5.51 51.11L5.39 50.11C6.16 50.04 6.9 49.97 7.62 49.88C8.06538 49.8633 8.49769 49.725 8.87 49.48C8.97817 49.3866 9.05934 49.2659 9.10506 49.1305C9.15079 48.9951 9.1594 48.8499 9.13 48.71C9.12303 48.564 9.07897 48.4222 9.00199 48.298C8.925 48.1738 8.81763 48.0712 8.69 48C8.25745 47.8855 7.80256 47.8855 7.37 48C6.68 48.09 5.94 48.19 5.16 48.32L5.05 47.35Z" fill="white"/>
<path d="M77.7 66.05L77.08 66.84C76.77 66.6 76.24 66.21 75.49 65.68C74.74 65.15 74.26 64.82 74.08 64.68C74.17 64.78 74.33 64.99 74.56 65.29C74.9184 65.7555 75.2522 66.2395 75.56 66.74C75.7792 67.1346 76.0371 67.5065 76.33 67.85L75.87 68.45C75.4631 68.2444 75.0379 68.077 74.6 67.95C73.87 67.71 73.36 67.53 73.08 67.42C72.8 67.31 72.54 67.18 72.28 67.04C72.5 67.21 72.97 67.61 73.68 68.24C74.39 68.87 74.86 69.24 75.09 69.44L74.53 70.16C74.53 70.16 73.99 69.63 73.06 68.69C72.13 67.75 71.55 67.2 71.32 67.01L72.14 66.01C72.6432 66.3027 73.1762 66.5407 73.73 66.72C74.2808 66.8946 74.8107 67.1293 75.31 67.42C74.9178 66.9947 74.5817 66.5208 74.31 66.01C74.04 65.4951 73.7038 65.0177 73.31 64.59L74.12 63.59C74.49 63.88 75.19 64.36 76.21 65.02C77.23 65.68 77.78 66.02 77.84 66.09L77.7 66.05ZM73.22 70.61L73.75 71.14L71.75 73.28C71.27 72.78 70.75 72.28 70.07 71.65C69.39 71.02 68.93 70.65 68.48 70.23L70.38 68.23L70.91 68.77C70.41 69.25 69.97 69.69 69.59 70.1C69.84 70.3 70.12 70.55 70.44 70.84C70.77 70.49 71.11 70.11 71.44 69.69L71.96 70.18C71.58 70.56 71.23 70.92 70.89 71.28C71.23 71.6 71.56 71.89 71.89 72.15C72.18 71.61 72.63 71.11 73.08 70.57L73.22 70.61ZM70.43 74.2L69.77 74.74C69.2351 74.4913 68.6753 74.3002 68.1 74.17C67.3664 74.0066 66.6594 73.7407 66 73.38C66.3263 73.6947 66.6335 74.0287 66.92 74.38C67.28 74.82 67.72 75.38 68.26 75.96L67.6 76.49C67.18 75.92 66.71 75.3 66.17 74.64C65.63 73.98 65.17 73.45 64.79 73.02L65.58 72.38C66.0798 72.6421 66.6107 72.8404 67.16 72.97C67.8389 73.1464 68.4938 73.405 69.11 73.74V73.74C68.7833 73.4226 68.4729 73.0888 68.18 72.74C67.79 72.26 67.38 71.74 66.95 71.29L67.61 70.75C67.94 71.21 68.38 71.75 68.92 72.44C69.46 73.13 70 73.68 70.43 74.2ZM66.24 77.37L65.43 77.9C65.06 77.29 64.65 76.62 64.19 75.9C63.73 75.18 63.33 74.61 62.99 74.14L63.81 73.61C64.1 74.11 64.47 74.71 64.93 75.42C65.39 76.13 65.84 76.8 66.24 77.37V77.37ZM64.24 78.69L63.35 79.15C63.17 78.8 62.85 78.23 62.35 77.43C61.85 76.63 61.61 76.12 61.5 75.92H61.45C61.45 76.06 61.56 76.31 61.64 76.68C61.72 77.05 61.8 77.68 61.89 78.4C61.9171 78.853 61.9908 79.3021 62.11 79.74L61.44 80.08C61.1608 79.7161 60.8459 79.3811 60.5 79.08C59.93 78.55 59.5 78.18 59.35 77.96C59.2 77.74 58.96 77.51 58.79 77.27H58.74C58.87 77.52 59.12 78.08 59.5 78.94C59.88 79.8 60.14 80.37 60.27 80.63L59.46 81.04C59.46 80.98 59.19 80.33 58.75 79.09C58.31 77.85 58.01 77.09 57.88 76.84L59.06 76.23C59.3913 76.7128 59.7772 77.1557 60.21 77.55C60.6329 77.9445 61.0118 78.3838 61.34 78.86H61.39C61.1943 78.3173 61.0633 77.7534 61 77.18C60.9635 76.5909 60.8492 76.0091 60.66 75.45L61.84 74.86C62.05 75.28 62.48 76.01 63.13 77.04C63.78 78.07 64.16 78.63 64.19 78.69H64.24ZM56.79 79.69C56.6734 79.2805 56.4145 78.9259 56.06 78.69C55.9139 78.5945 55.748 78.5332 55.5749 78.5107C55.4017 78.4881 55.2257 78.505 55.06 78.56C54.9 78.6118 54.7557 78.7031 54.6403 78.8254C54.5249 78.9478 54.4423 79.0972 54.4 79.26C54.2659 79.6453 54.2659 80.0647 54.4 80.45C54.5166 80.8596 54.7755 81.2141 55.13 81.45C55.2749 81.5483 55.4409 81.6113 55.6145 81.6339C55.7882 81.6565 55.9648 81.638 56.13 81.58C56.287 81.523 56.4285 81.4299 56.5431 81.3084C56.6577 81.1868 56.7423 81.0401 56.79 80.88C56.9176 80.4768 56.8999 80.0416 56.74 79.65L56.79 79.69ZM57.65 79.29C57.8956 79.8857 57.8956 80.5543 57.65 81.15C57.5345 81.4263 57.3602 81.6742 57.1391 81.8763C56.918 82.0783 56.6556 82.2298 56.37 82.32C56.1051 82.4204 55.822 82.4634 55.5393 82.4462C55.2565 82.429 54.9807 82.3519 54.73 82.22C54.466 82.0831 54.2318 81.895 54.0412 81.6667C53.8507 81.4383 53.7075 81.1743 53.62 80.89C53.3791 80.2899 53.3791 79.6201 53.62 79.02C53.7394 78.7444 53.9162 78.4975 54.1387 78.2957C54.3611 78.0939 54.6241 77.942 54.91 77.85C55.1749 77.7496 55.458 77.7066 55.7407 77.7238C56.0235 77.7411 56.2993 77.8182 56.55 77.95C57.0539 78.2325 57.4299 78.6979 57.6 79.25L57.65 79.29ZM52.92 83L51.92 83.18C51.8 82.44 51.69 81.79 51.58 81.24L49.88 81.57C49.98 82.06 50.11 82.71 50.29 83.5L49.34 83.69C49.22 82.94 49.09 82.17 48.94 81.38C48.79 80.59 48.63 79.89 48.49 79.3L49.44 79.11C49.53 79.75 49.63 80.34 49.74 80.87L51.45 80.54C51.36 80.07 51.23 79.54 51.07 78.8L52.07 78.61C52.15 79.19 52.27 79.89 52.43 80.71C52.59 81.58 52.75 82.35 52.92 83ZM44.06 79.57L43.97 80.31C43.52 80.23 43.09 80.18 42.69 80.14C42.69 80.57 42.6 81.05 42.55 81.58C42.48 82.4 42.43 83.18 42.39 83.91L41.39 83.83C41.48 83.11 41.57 82.33 41.64 81.5C41.64 80.99 41.72 80.5 41.75 80.06L40.46 80L40.56 79.27L44.06 79.57ZM38.44 81.5C38.3339 80.8376 38.2638 80.17 38.23 79.5H38.17C37.8704 80.1052 37.5365 80.6928 37.17 81.26L38.44 81.5ZM39.62 83.7L38.55 83.49C38.5653 83.0488 38.5418 82.6071 38.48 82.17L36.93 81.87C36.6996 82.2481 36.5118 82.6506 36.37 83.07L35.37 82.87C35.37 82.79 35.79 82.12 36.58 80.87C37.0307 80.2035 37.4382 79.5087 37.8 78.79L39.07 79.04C39.1194 79.8251 39.2163 80.6066 39.36 81.38C39.4963 82.1503 39.5831 82.9286 39.62 83.71V83.7ZM34.24 82.7L33.44 82.42C33.3576 81.8321 33.21 81.2552 33 80.7C32.757 79.9897 32.6123 79.2495 32.57 78.5H32.52C32.4234 78.9461 32.3032 79.3867 32.16 79.82C31.97 80.35 31.76 81.01 31.53 81.82L30.73 81.54C30.99 80.88 31.27 80.15 31.54 79.35C31.81 78.55 32.03 77.88 32.19 77.35L33.19 77.68C33.2278 78.242 33.3388 78.7967 33.52 79.33C33.7342 79.9976 33.8619 80.6899 33.9 81.39V81.39C34.02 80.89 34.14 80.45 34.27 80.06C34.47 79.48 34.67 78.87 34.85 78.25L35.66 78.52C35.45 79.05 35.2 79.72 34.92 80.52C34.64 81.32 34.44 82 34.24 82.69V82.7ZM29.31 81L28.43 80.58C28.76 79.95 29.1 79.25 29.43 78.49C29.76 77.73 30.07 77.08 30.29 76.49L31.17 76.91C30.9 77.42 30.59 78.05 30.23 78.82C29.87 79.59 29.58 80.32 29.31 81ZM27 80L26.15 79.49C26.35 79.16 26.67 78.58 27.1 77.76C27.53 76.94 27.81 76.44 27.93 76.24C27.84 76.34 27.66 76.53 27.38 76.8C27.1 77.07 26.67 77.44 26.06 77.92C25.696 78.184 25.3608 78.4857 25.06 78.82L24.41 78.43C24.5653 78.0019 24.6792 77.5599 24.75 77.11C24.9 76.35 25.01 75.83 25.09 75.54C25.17 75.25 25.27 74.97 25.38 74.7H25.33C25.1833 74.94 24.85 75.45 24.33 76.23C23.8 77.01 23.46 77.53 23.33 77.78L22.56 77.32C22.56 77.26 23.02 76.71 23.83 75.68C24.64 74.65 25.13 74 25.29 73.74L26.43 74.43C26.1918 74.9644 26.0173 75.5249 25.91 76.1C25.8071 76.6673 25.6393 77.221 25.41 77.75C25.7879 77.301 26.2176 76.8982 26.69 76.55C27.1674 76.2078 27.5977 75.8043 27.97 75.35L29.1 76.03C28.86 76.43 28.47 77.19 27.93 78.28C27.39 79.37 27.08 80 27 80ZM24.1 73C23.61 73.59 23.1 74.19 22.65 74.79C21.72 75.99 20.76 76.21 19.78 75.44C19.5719 75.3002 19.3951 75.1187 19.2608 74.9069C19.1266 74.6952 19.0377 74.4579 19 74.21C19.0337 73.5648 19.3001 72.9537 19.75 72.49C20.22 71.89 20.68 71.28 21.12 70.69L21.89 71.28C21.39 71.87 20.89 72.45 20.47 73.02C20.1654 73.3468 19.9577 73.7519 19.87 74.19C19.8623 74.3324 19.8913 74.4743 19.9544 74.6022C20.0174 74.73 20.1124 74.8395 20.23 74.92C20.3394 75.0185 20.4721 75.0875 20.6155 75.1208C20.7589 75.154 20.9084 75.1503 21.05 75.11C21.4546 74.9093 21.7994 74.6058 22.05 74.23C22.48 73.68 22.93 73.08 23.39 72.44L24.1 73ZM18.1 73.07L17.54 73.56L15.63 71.5C16.1 71.1 16.63 70.57 17.37 69.93C18.11 69.29 18.51 68.85 18.9 68.45L19.56 69.16C19.16 69.49 18.63 69.96 17.97 70.58C17.47 71.05 17.05 71.41 16.74 71.67C17.17 72.13 17.64 72.6 18.14 73.09L18.1 73.07ZM15.43 70.22L14.82 70.66L13.1 68.43C13.61 68.07 14.23 67.6 14.97 67.03C15.71 66.46 16.2 66.03 16.62 65.68L17.22 66.44C16.79 66.74 16.22 67.17 15.51 67.72C14.97 68.15 14.51 68.47 14.19 68.72C14.58 69.19 15 69.71 15.47 70.24L15.43 70.22ZM12.13 67.22L11.58 66.42C12.17 66.04 12.82 65.6 13.52 65.12C14.22 64.64 14.78 64.22 15.24 63.86L15.8 64.65C15.31 64.96 14.72 65.35 14.02 65.84C13.32 66.33 12.73 66.78 12.17 67.21L12.13 67.22Z" fill="white"/>
<path fill-rule="evenodd" clip-rule="evenodd" d="M45.07 49.52C47.474 48.558 50.156 48.558 52.56 49.52V49.35C52.56 45.87 52.56 37.5 52.56 36.7C50.8252 35.9113 48.882 35.7044 47.02 36.11C46.6505 36.1774 46.2862 36.2709 45.93 36.39C45.6279 36.4846 45.3308 36.5948 45.04 36.72L45.07 49.52ZM37.18 49.52C39.5794 48.6118 42.2333 48.6439 44.61 49.61V36.77C44.3205 36.6387 44.0233 36.5251 43.72 36.43C43.364 36.3076 42.9998 36.2107 42.63 36.14C40.7835 35.7016 38.8434 35.8953 37.12 36.69C37.12 37.77 37.17 45.6 37.18 49.17V49.33V49.52ZM36.7 36.52V36.43L36.81 36.37C38.6409 35.4725 40.7277 35.2426 42.71 35.72C43.11 35.8 43.49 35.9 43.85 36.01C44.21 36.12 44.47 36.23 44.76 36.36C45.1088 36.2177 45.4662 36.0975 45.83 36C46.2 35.89 46.58 35.79 46.98 35.71C48.9846 35.2736 51.0778 35.5273 52.92 36.43L53.03 36.49V36.61L54.33 38.3C54.3371 38.343 54.3371 38.387 54.33 38.43C54.33 38.43 54.33 48.43 54.33 52.05C54.3292 52.0854 54.3199 52.12 54.3029 52.1511C54.2858 52.1821 54.2615 52.2085 54.2321 52.2281C54.2026 52.2478 54.1689 52.26 54.1337 52.2638C54.0985 52.2676 54.063 52.2629 54.03 52.25C51.7953 51.3661 49.3479 51.1677 47 51.68V51.9C46.9955 51.9542 46.9719 52.005 46.9334 52.0434C46.895 52.0819 46.8442 52.1055 46.79 52.11H43.07C43.0151 52.1076 42.9631 52.0846 42.9242 52.0458C42.8854 52.0069 42.8624 51.9549 42.86 51.9V51.49C40.416 51.0272 37.8928 51.224 35.55 52.06C35.5176 52.0709 35.4831 52.0741 35.4492 52.0693C35.4154 52.0646 35.3831 52.052 35.3549 52.0326C35.3268 52.0132 35.3036 51.9875 35.2871 51.9575C35.2706 51.9276 35.2613 51.8942 35.26 51.86C35.26 48.28 35.26 38.26 35.26 38.23C35.2558 38.1834 35.2558 38.1366 35.26 38.09L36.7 36.52Z" fill="#403937"/>
<path d="M45.07 49.52C47.474 48.558 50.156 48.558 52.56 49.52V49.35C52.56 45.87 52.56 37.5 52.56 36.7C50.8252 35.9113 48.882 35.7044 47.02 36.11C46.6505 36.1774 46.2862 36.2709 45.93 36.39C45.6279 36.4846 45.3308 36.5948 45.04 36.72L45.07 49.52ZM37.18 49.52C39.5794 48.6118 42.2333 48.6439 44.61 49.61V36.77C44.3205 36.6387 44.0233 36.5251 43.72 36.43C43.364 36.3076 42.9998 36.2107 42.63 36.14C40.7835 35.7016 38.8434 35.8953 37.12 36.69C37.12 37.77 37.17 45.6 37.18 49.17V49.33V49.52ZM36.7 36.52V36.43L36.81 36.37C38.6409 35.4725 40.7277 35.2426 42.71 35.72C43.11 35.8 43.49 35.9 43.85 36.01C44.21 36.12 44.47 36.23 44.76 36.36C45.1088 36.2177 45.4662 36.0975 45.83 36C46.2 35.89 46.58 35.79 46.98 35.71C48.9846 35.2736 51.0778 35.5273 52.92 36.43L53.03 36.49V36.61L54.33 38.3C54.3371 38.343 54.3371 38.387 54.33 38.43C54.33 38.43 54.33 48.43 54.33 52.05C54.3292 52.0854 54.3199 52.12 54.3029 52.1511C54.2858 52.1821 54.2615 52.2085 54.2321 52.2281C54.2026 52.2478 54.1689 52.26 54.1337 52.2638C54.0985 52.2676 54.063 52.2629 54.03 52.25C51.7953 51.3661 49.3479 51.1677 47 51.68V51.9C46.9955 51.9542 46.9719 52.005 46.9334 52.0434C46.895 52.0819 46.8442 52.1055 46.79 52.11H43.07C43.0151 52.1076 42.9631 52.0846 42.9242 52.0458C42.8854 52.0069 42.8624 51.9549 42.86 51.9V51.49C40.416 51.0272 37.8928 51.224 35.55 52.06C35.5176 52.0709 35.4831 52.0741 35.4492 52.0693C35.4154 52.0646 35.3831 52.052 35.3549 52.0326C35.3268 52.0132 35.3036 51.9875 35.2871 51.9575C35.2706 51.9276 35.2613 51.8942 35.26 51.86C35.26 48.28 35.26 38.26 35.26 38.23C35.2558 38.1834 35.2558 38.1366 35.26 38.09L36.7 36.52Z" stroke="#403937" stroke-width="0.34" stroke-miterlimit="22.93"/>
<path fill-rule="evenodd" clip-rule="evenodd" d="M44.61 36.77C44.3205 36.6387 44.0233 36.5251 43.72 36.43C43.364 36.3076 42.9997 36.2107 42.63 36.14C40.7835 35.7016 38.8434 35.8953 37.12 36.69C37.12 37.8 37.18 46.12 37.18 49.5C39.5802 48.5967 42.2323 48.6288 44.61 49.59V36.77Z" fill="white"/>
<path fill-rule="evenodd" clip-rule="evenodd" d="M46 36.36C45.6979 36.4546 45.4008 36.5648 45.11 36.69V49.52C47.5161 48.5692 50.1939 48.5692 52.6 49.52C52.6 46.13 52.6 37.82 52.6 36.7C50.8608 35.9022 48.9094 35.6916 47.04 36.1C46.6705 36.1674 46.3062 36.2609 45.95 36.38" fill="white"/>
<path fill-rule="evenodd" clip-rule="evenodd" d="M42.41 39.81C41.7681 40.0895 41.0974 40.2974 40.41 40.43L40.33 40.67C40.71 40.67 41.44 40.5 40.91 42.07L39.91 44.92C39.8733 45.0426 39.8651 45.1719 39.8861 45.2982C39.907 45.4244 39.9565 45.5442 40.0308 45.6484C40.1051 45.7525 40.2022 45.8384 40.3147 45.8993C40.4272 45.9603 40.5521 45.9947 40.68 46C41.89 46.08 42.43 44.88 42.59 44.58H42.36C42.24 44.75 42.05 45.28 41.61 45.38C41.17 45.48 40.91 45.47 40.8 45.2C40.69 44.93 40.8 44.57 40.95 44.2L42.41 39.81Z" fill="#403937"/>
<path fill-rule="evenodd" clip-rule="evenodd" d="M50.88 38.94L49 41.6L48.87 39.78C48.8753 39.5795 48.8272 39.3812 48.7305 39.2055C48.6339 39.0297 48.4922 38.8829 48.32 38.78C48.1539 38.7056 47.969 38.684 47.7902 38.7179C47.6114 38.7519 47.4473 38.8399 47.32 38.97C46.8901 39.4457 46.5904 40.0244 46.45 40.65H46.65C46.7486 40.3191 46.9312 40.0194 47.18 39.78C47.3142 39.6505 47.4935 39.5781 47.68 39.5781C47.8665 39.5781 48.0458 39.6505 48.18 39.78C48.2933 39.9001 48.3817 40.0415 48.4401 40.196C48.4984 40.3505 48.5256 40.515 48.52 40.68L48.63 42.17L45.5 46.52H46.61L48.71 43.52C48.679 44.1872 48.699 44.8558 48.77 45.52C48.7805 45.8542 48.9039 46.1749 49.12 46.43C49.2815 46.5557 49.4803 46.6239 49.685 46.6239C49.8897 46.6239 50.0885 46.5557 50.25 46.43C50.9 46.08 51.25 44.95 51.32 44.64H51.11C51.0544 44.8621 50.9478 45.0682 50.7985 45.2419C50.6491 45.4155 50.4613 45.5518 50.25 45.64C50.1548 45.6838 50.0505 45.704 49.9459 45.6988C49.8412 45.6936 49.7394 45.6632 49.649 45.6102C49.5587 45.5572 49.4825 45.4831 49.4269 45.3942C49.3714 45.3054 49.3381 45.2045 49.33 45.1C49.1795 44.4091 49.0892 43.7065 49.06 43L52 39L50.88 38.94Z" fill="#403937"/>
<path d="M236.18 8.47001C235.65 7.46001 235 7.00001 234.26 7.00001C234.025 6.99154 233.795 7.06588 233.61 7.21001C233.311 7.52294 233.101 7.90937 233 8.33001C232.807 9.16561 232.723 10.0228 232.75 10.88C232.714 11.8185 232.808 12.7575 233.03 13.67C233.149 14.1666 233.41 14.618 233.78 14.97C233.971 15.1187 234.209 15.1933 234.45 15.18C235.07 15.18 235.66 14.69 236.21 13.71L236.18 8.47001ZM239.18 1.70001V13.19C239.161 13.6442 239.181 14.0992 239.24 14.55C239.281 14.7585 239.399 14.944 239.57 15.07C239.823 15.2149 240.109 15.2907 240.4 15.29V15.66L236.19 16.47V14.89C235.82 15.383 235.363 15.8034 234.84 16.13C234.435 16.3614 233.976 16.4789 233.51 16.47C232.903 16.4768 232.306 16.3219 231.778 16.0214C231.251 15.7209 230.813 15.2856 230.51 14.76C229.89 13.7369 229.581 12.5557 229.62 11.36C229.602 10.3723 229.79 9.39171 230.17 8.48001C230.477 7.70444 231.006 7.03658 231.69 6.56001C232.295 6.13989 233.013 5.91324 233.75 5.91001C234.19 5.89967 234.625 5.99573 235.02 6.19001C235.468 6.45339 235.867 6.79163 236.2 7.19001V4.19001C236.225 3.73427 236.191 3.27723 236.1 2.83001C236.027 2.63596 235.89 2.47328 235.71 2.37001C235.392 2.24444 235.05 2.19313 234.71 2.22001V1.70001H239.18ZM224.08 13.91V10.59C223.335 10.9914 222.681 11.5431 222.16 12.21C221.901 12.5428 221.754 12.9487 221.74 13.37C221.738 13.5303 221.77 13.6892 221.831 13.8371C221.893 13.9849 221.985 14.1186 222.1 14.23C222.194 14.3306 222.309 14.4089 222.437 14.459C222.565 14.5092 222.703 14.5301 222.84 14.52C223.309 14.4682 223.745 14.2521 224.07 13.91H224.08ZM224.08 14.7C223.213 15.6092 222.05 16.1799 220.8 16.31C220.538 16.3193 220.276 16.2744 220.032 16.178C219.787 16.0817 219.565 15.936 219.38 15.75C219.193 15.5688 219.046 15.3508 218.948 15.1098C218.85 14.8688 218.803 14.6101 218.81 14.35C218.825 13.9648 218.923 13.5873 219.095 13.2425C219.267 12.8977 219.511 12.5935 219.81 12.35C221.121 11.3516 222.561 10.5342 224.09 9.92001V8.92001C224.133 8.42825 224.102 7.93288 224 7.45001C223.897 7.23711 223.734 7.05957 223.53 6.94001C223.301 6.79218 223.033 6.71562 222.76 6.72001C222.354 6.70415 221.953 6.81228 221.61 7.03001C221.53 7.07673 221.463 7.1421 221.415 7.22048C221.366 7.29887 221.337 7.38793 221.33 7.48001C221.363 7.69279 221.469 7.88742 221.63 8.03001C221.871 8.26653 222.017 8.58317 222.04 8.92001C222.041 9.08735 222.006 9.25298 221.939 9.40625C221.872 9.55952 221.773 9.69705 221.65 9.81001C221.375 10.0531 221.017 10.1819 220.65 10.17C220.239 10.1855 219.838 10.0423 219.53 9.77001C219.388 9.65572 219.272 9.51118 219.193 9.34686C219.113 9.18254 219.071 9.00257 219.07 8.82001C219.084 8.27126 219.301 7.74725 219.68 7.35001C220.146 6.85455 220.732 6.48627 221.38 6.28001C222.109 6.03588 222.872 5.91094 223.64 5.91001C224.435 5.86618 225.223 6.07631 225.89 6.51001C226.373 6.82593 226.747 7.28348 226.96 7.82001C227.09 8.47825 227.14 9.14974 227.11 9.82001V13.69C227.096 13.9747 227.116 14.2601 227.17 14.54C227.19 14.6433 227.247 14.7358 227.33 14.8C227.396 14.8584 227.482 14.8905 227.57 14.89C227.69 14.8731 227.804 14.8293 227.905 14.7617C228.005 14.6941 228.089 14.6047 228.15 14.5L228.47 14.75C228.176 15.2507 227.773 15.6781 227.29 16C226.901 16.2434 226.449 16.3685 225.99 16.36C225.513 16.3898 225.041 16.2479 224.66 15.96C224.304 15.6347 224.092 15.1816 224.07 14.7H224.08ZM213.08 8.47001C212.56 7.47001 211.92 6.96001 211.16 6.96001C210.925 6.95154 210.695 7.02588 210.51 7.17001C210.198 7.49325 209.977 7.89353 209.87 8.33001C209.681 9.16621 209.6 10.0232 209.63 10.88C209.596 11.8179 209.687 12.756 209.9 13.67C210.024 14.1649 210.283 14.6153 210.65 14.97C210.841 15.1187 211.079 15.1933 211.32 15.18C211.94 15.18 212.53 14.69 213.08 13.71V8.47001ZM216.08 1.70001V13.19C216.057 13.6445 216.08 14.1003 216.15 14.55C216.184 14.7588 216.299 14.9458 216.47 15.07C216.723 15.2149 217.009 15.2907 217.3 15.29V15.66L213.09 16.47V14.89C212.72 15.383 212.263 15.8034 211.74 16.13C211.336 16.3623 210.876 16.4799 210.41 16.47C209.803 16.4768 209.206 16.3219 208.678 16.0214C208.151 15.7209 207.713 15.2856 207.41 14.76C206.79 13.7369 206.481 12.5557 206.52 11.36C206.507 10.3727 206.694 9.39309 207.07 8.48001C207.377 7.70444 207.906 7.03658 208.59 6.56001C209.195 6.13989 209.913 5.91324 210.65 5.91001C211.09 5.89967 211.525 5.99573 211.92 6.19001C212.369 6.45088 212.769 6.78946 213.1 7.19001V4.19001C213.125 3.73427 213.091 3.27723 213 2.83001C212.931 2.6371 212.796 2.47441 212.62 2.37001C212.302 2.24579 211.96 2.19453 211.62 2.22001V1.70001H216.08ZM204.23 6.20001V14.11C204.175 14.5782 204.262 15.052 204.48 15.47C204.615 15.591 204.774 15.6834 204.945 15.7419C205.117 15.8003 205.299 15.8235 205.48 15.81V16.18H200V15.81C200.185 15.8187 200.369 15.7884 200.541 15.7212C200.714 15.6541 200.87 15.5514 201 15.42C201.195 15.0127 201.271 14.5587 201.22 14.11V8.27001C201.279 7.80495 201.202 7.3328 201 6.91001C200.864 6.79045 200.705 6.69889 200.534 6.64055C200.362 6.58221 200.181 6.55824 200 6.57001V6.20001H204.23ZM202.73 1.37001C202.947 1.36573 203.164 1.40612 203.365 1.48868C203.566 1.57124 203.748 1.69422 203.9 1.85001C204.052 2.00052 204.173 2.17963 204.255 2.37701C204.337 2.57439 204.38 2.78613 204.38 3.00001C204.384 3.21749 204.344 3.43354 204.261 3.63478C204.179 3.83603 204.056 4.01819 203.9 4.17001C203.747 4.32438 203.565 4.44643 203.364 4.52889C203.163 4.61135 202.947 4.65254 202.73 4.65001C202.513 4.65134 202.298 4.60956 202.097 4.52711C201.896 4.44466 201.714 4.32318 201.56 4.16969C201.407 4.01621 201.285 3.83379 201.203 3.633C201.12 3.43222 201.079 3.21706 201.08 3.00001C201.077 2.78277 201.119 2.56723 201.201 2.36623C201.284 2.16524 201.406 1.98288 201.56 1.83001C201.714 1.67783 201.896 1.55855 202.098 1.47946C202.299 1.40037 202.514 1.36313 202.73 1.37001V1.37001ZM198.13 5.93001L198.28 9.34001H197.91C197.631 8.55492 197.172 7.84602 196.57 7.27001C196.19 6.93506 195.706 6.74089 195.2 6.72001C195.063 6.7152 194.927 6.73845 194.8 6.78833C194.673 6.83821 194.557 6.91366 194.46 7.01001C194.365 7.09613 194.288 7.20092 194.235 7.31788C194.181 7.43484 194.152 7.56149 194.15 7.69001C194.155 7.89201 194.229 8.08622 194.36 8.24001C194.933 8.81159 195.571 9.31493 196.26 9.74001C197.047 10.2148 197.744 10.8241 198.32 11.54C198.641 12.0303 198.811 12.604 198.81 13.19C198.806 13.7596 198.662 14.3194 198.39 14.82C198.129 15.3194 197.725 15.73 197.23 16C196.72 16.2845 196.144 16.4326 195.56 16.43C194.905 16.3891 194.262 16.2334 193.66 15.97C193.522 15.9151 193.377 15.8782 193.23 15.86C192.99 15.86 192.8 16.04 192.65 16.4H192.27L192.1 12.82H192.47C192.712 13.6243 193.164 14.3493 193.78 14.92C194.207 15.3273 194.762 15.5746 195.35 15.62C195.504 15.6258 195.658 15.6005 195.803 15.5455C195.947 15.4905 196.079 15.407 196.19 15.3C196.294 15.2034 196.377 15.0856 196.432 14.9545C196.487 14.8235 196.514 14.6822 196.51 14.54C196.517 14.2187 196.407 13.9058 196.2 13.66C195.763 13.2352 195.284 12.8565 194.77 12.53C194.002 12.0447 193.297 11.467 192.67 10.81C192.217 10.269 191.969 9.58564 191.97 8.88001C191.97 8.11332 192.251 7.37319 192.76 6.80001C193.047 6.48245 193.402 6.23387 193.799 6.07282C194.195 5.91178 194.623 5.84245 195.05 5.87001C195.596 5.87341 196.133 6.01442 196.61 6.28001C196.751 6.372 196.912 6.42703 197.08 6.44001C197.189 6.44242 197.296 6.41474 197.39 6.36001C197.532 6.21904 197.656 6.0612 197.76 5.89001L198.13 5.93001ZM186.27 6.20001V8.47001C186.709 7.68154 187.297 6.98543 188 6.42001C188.413 6.10705 188.912 5.92896 189.43 5.91001C189.605 5.90448 189.78 5.93441 189.943 5.99799C190.106 6.06158 190.255 6.1575 190.38 6.28001C190.626 6.55362 190.755 6.91248 190.74 7.28001C190.761 7.68012 190.637 8.07437 190.39 8.39001C190.29 8.51301 190.163 8.61191 190.019 8.67941C189.876 8.74691 189.719 8.78129 189.56 8.78001C189.192 8.79612 188.833 8.66679 188.56 8.42001C188.405 8.27405 188.241 8.13715 188.07 8.01001C187.993 7.96811 187.907 7.9474 187.82 7.95001C187.605 7.95137 187.398 8.03344 187.24 8.18001C186.935 8.44854 186.707 8.7938 186.58 9.18001C186.349 9.91784 186.235 10.687 186.24 11.46V14.35C186.224 14.6159 186.251 14.8826 186.32 15.14C186.39 15.3222 186.526 15.4718 186.7 15.56C186.969 15.6738 187.258 15.7316 187.55 15.73V16.1H182.13V15.73C182.295 15.7327 182.459 15.7023 182.612 15.6404C182.764 15.5786 182.903 15.4866 183.02 15.37C183.227 14.8603 183.306 14.3074 183.25 13.76V8.32001C183.271 7.94763 183.24 7.57417 183.16 7.21001C183.106 7.03121 182.998 6.87379 182.85 6.76001C182.629 6.64022 182.382 6.57507 182.13 6.57001V6.20001H186.27ZM178.27 10.13C178.299 9.33861 178.236 8.5465 178.08 7.77001C177.989 7.38685 177.788 7.03898 177.5 6.77001C177.328 6.63961 177.116 6.57252 176.9 6.58001C176.714 6.58241 176.533 6.63356 176.373 6.72834C176.213 6.82311 176.081 6.95817 175.99 7.12001C175.53 7.91002 175.311 8.8172 175.36 9.73001V10.1L178.27 10.13ZM180.89 10.83H175.4C175.395 11.9762 175.771 13.0915 176.47 14C176.678 14.2755 176.947 14.4992 177.256 14.6535C177.565 14.8079 177.905 14.8889 178.25 14.89C178.665 14.8932 179.07 14.7674 179.41 14.53C179.867 14.184 180.248 13.7484 180.53 13.25L180.9 13.49C180.506 14.403 179.891 15.2037 179.11 15.82C178.441 16.2828 177.643 16.5241 176.83 16.51C176.169 16.5439 175.511 16.4039 174.922 16.1038C174.332 15.8037 173.831 15.3541 173.47 14.8C172.828 13.7814 172.508 12.5932 172.55 11.39C172.464 9.93204 172.948 8.49777 173.9 7.39001C174.289 6.92792 174.774 6.55616 175.322 6.30057C175.869 6.04499 176.466 5.91171 177.07 5.91001C177.572 5.91145 178.068 6.02326 178.523 6.23754C178.977 6.45181 179.379 6.76331 179.7 7.15001C180.518 8.19875 180.942 9.5008 180.9 10.83H180.89ZM166 16.47L162.62 8.73001C162.387 8.0927 162.067 7.49042 161.67 6.94001C161.473 6.7413 161.217 6.61153 160.94 6.57001V6.20001H166.25V6.57001C166.009 6.54568 165.767 6.60964 165.57 6.75001C165.488 6.81823 165.422 6.90387 165.377 7.00072C165.332 7.09758 165.309 7.20323 165.31 7.31001C165.385 7.83204 165.544 8.33856 165.78 8.81001L167.43 12.55L168.73 9.32001C169.03 8.68978 169.223 8.01379 169.3 7.32001C169.303 7.21774 169.283 7.11607 169.242 7.02257C169.2 6.92908 169.138 6.84616 169.06 6.78001C168.81 6.61049 168.511 6.52952 168.21 6.55001V6.20001H171.47V6.57001C171.18 6.598 170.908 6.72513 170.7 6.93001C170.316 7.45158 170.012 8.02805 169.8 8.64001L166.49 16.47H166ZM159.33 6.20001V14.11C159.28 14.578 159.367 15.0503 159.58 15.47C159.716 15.5905 159.874 15.6827 160.046 15.7411C160.217 15.7994 160.399 15.8229 160.58 15.81V16.18H155.14V15.81C155.325 15.8199 155.51 15.7903 155.682 15.723C155.855 15.6558 156.011 15.5525 156.14 15.42C156.341 15.0145 156.417 14.5588 156.36 14.11V8.27001C156.415 7.80186 156.328 7.32801 156.11 6.91001C155.975 6.78903 155.816 6.69657 155.645 6.63815C155.473 6.57973 155.291 6.55656 155.11 6.57001V6.20001H159.33ZM157.83 1.37001C158.049 1.36495 158.267 1.40494 158.47 1.48751C158.673 1.57008 158.857 1.69346 159.01 1.85001C159.162 2.00052 159.283 2.17963 159.365 2.37701C159.447 2.57439 159.49 2.78613 159.49 3.00001C159.498 3.2218 159.458 3.44268 159.373 3.64789C159.289 3.8531 159.162 4.03792 159 4.19001C158.767 4.41989 158.472 4.57551 158.151 4.63712C157.83 4.69873 157.498 4.66355 157.196 4.53605C156.895 4.40855 156.639 4.19447 156.46 3.92099C156.281 3.64751 156.187 3.32695 156.19 3.00001C156.187 2.78277 156.229 2.56723 156.311 2.36623C156.394 2.16524 156.516 1.98288 156.67 1.83001C156.822 1.67907 157.004 1.56051 157.203 1.48145C157.402 1.4024 157.616 1.36449 157.83 1.37001V1.37001ZM147.38 6.20001V7.49001C147.801 7.01189 148.297 6.60644 148.85 6.29001C149.314 6.03937 149.833 5.90874 150.36 5.91001C150.944 5.88871 151.517 6.08063 151.97 6.45001C152.388 6.79537 152.686 7.26459 152.82 7.79001C152.968 8.56064 153.025 9.34604 152.99 10.13V14C152.939 14.4867 153.011 14.9785 153.2 15.43C153.314 15.5447 153.45 15.6355 153.599 15.6973C153.748 15.7591 153.908 15.7906 154.07 15.79V16.16H149.07V15.79C149.232 15.7797 149.39 15.7319 149.53 15.6503C149.671 15.5688 149.791 15.4557 149.88 15.32C150.014 14.8936 150.055 14.4435 150 14V9.58001C150.024 9.05165 149.994 8.52221 149.91 8.00001C149.854 7.80353 149.739 7.62903 149.58 7.50001C149.439 7.38407 149.262 7.32047 149.08 7.32001C148.47 7.32001 147.9 7.75001 147.38 8.61001V14C147.334 14.4834 147.406 14.9706 147.59 15.42C147.683 15.5347 147.8 15.6274 147.933 15.6914C148.067 15.7553 148.212 15.789 148.36 15.79V16.16H143.31V15.79C143.479 15.7866 143.646 15.7495 143.8 15.6808C143.955 15.6121 144.094 15.5132 144.21 15.39C144.379 14.9474 144.441 14.4711 144.39 14V8.36001C144.441 7.87653 144.369 7.38791 144.18 6.94001C143.949 6.70843 143.637 6.57575 143.31 6.57001V6.20001H147.38ZM127.27 1.70001H134.75V2.07001H134.37C133.974 2.03512 133.576 2.09689 133.21 2.25001C133.01 2.35467 132.852 2.52383 132.76 2.73001C132.64 3.24408 132.596 3.77313 132.63 4.30001V11.38C132.569 12.2472 132.667 13.1183 132.92 13.95C133.134 14.3967 133.484 14.7642 133.92 15C134.436 15.2968 135.025 15.4424 135.62 15.42C136.324 15.4394 137.018 15.2554 137.62 14.89C138.169 14.5398 138.598 14.0305 138.85 13.43C139.189 12.3888 139.328 11.2929 139.26 10.2V4.30001C139.294 3.82443 139.226 3.34713 139.06 2.90001C138.96 2.65244 138.78 2.445 138.55 2.31001C138.12 2.12876 137.656 2.04673 137.19 2.07001V1.70001H142.19V2.07001H141.89C141.541 2.05759 141.195 2.14056 140.89 2.31001C140.614 2.48568 140.406 2.75022 140.3 3.06001C140.185 3.46284 140.138 3.88179 140.16 4.30001V9.79001C140.207 11.029 140.096 12.2689 139.83 13.48C139.527 14.3346 138.95 15.0655 138.19 15.56C137.143 16.2622 135.9 16.6125 134.64 16.56C133.648 16.6067 132.659 16.436 131.74 16.06C130.905 15.7037 130.204 15.0908 129.74 14.31C129.317 13.4145 129.118 12.4295 129.16 11.44V4.30001C129.188 3.77155 129.134 3.24196 129 2.73001C128.903 2.51519 128.733 2.34164 128.52 2.24001C128.118 2.09084 127.687 2.03278 127.26 2.07001L127.27 1.70001Z" fill="white"/>
<path d="M232.46 79.24V75.5C231.624 75.9585 230.887 76.5769 230.29 77.32C229.999 77.7001 229.835 78.1617 229.82 78.64C229.814 78.8252 229.847 79.0096 229.916 79.1816C229.985 79.3537 230.088 79.5097 230.22 79.64C230.328 79.7511 230.46 79.8372 230.605 79.8925C230.75 79.9477 230.905 79.9708 231.06 79.96C231.593 79.9002 232.088 79.6561 232.46 79.27V79.24ZM232.46 80.16C231.486 81.1919 230.172 81.8381 228.76 81.98C228.463 81.9903 228.167 81.9398 227.89 81.8314C227.613 81.7231 227.361 81.5592 227.15 81.35C226.943 81.1433 226.78 80.8966 226.672 80.625C226.564 80.3533 226.512 80.0624 226.52 79.77C226.529 79.3265 226.632 78.89 226.824 78.4899C227.015 78.0897 227.29 77.7352 227.63 77.45C229.112 76.3304 230.736 75.4124 232.46 74.72V73.56C232.491 73.0194 232.444 72.4771 232.32 71.95C232.206 71.7103 232.021 71.5114 231.79 71.38C231.529 71.2167 231.228 71.1301 230.92 71.13C230.464 71.112 230.014 71.2342 229.63 71.48C229.538 71.5315 229.461 71.6052 229.405 71.6943C229.349 71.7834 229.317 71.885 229.31 71.99C229.35 72.2292 229.47 72.4478 229.65 72.61C229.921 72.8753 230.085 73.2314 230.11 73.61C230.112 73.7983 230.073 73.9849 229.997 74.1573C229.922 74.3297 229.81 74.484 229.67 74.61C229.358 74.8969 228.944 75.048 228.52 75.03C228.053 75.0452 227.599 74.8806 227.25 74.57C227.091 74.4403 226.963 74.2771 226.875 74.0921C226.787 73.9071 226.741 73.7049 226.74 73.5C226.756 72.8851 226.998 72.2976 227.42 71.85C227.945 71.2882 228.607 70.8714 229.34 70.64C230.164 70.359 231.029 70.2171 231.9 70.22C232.794 70.1739 233.68 70.4119 234.43 70.9C234.975 71.2535 235.398 71.7669 235.64 72.37C235.79 73.1337 235.847 73.9126 235.81 74.69V79.05C235.792 79.3845 235.812 79.72 235.87 80.05C235.901 80.1648 235.963 80.2687 236.05 80.35C236.132 80.408 236.23 80.4394 236.33 80.44C236.469 80.4249 236.602 80.3772 236.718 80.3007C236.834 80.2242 236.931 80.1211 237 80L237.36 80.28C237.039 80.7961 236.613 81.239 236.11 81.58C235.672 81.8503 235.165 81.9892 234.65 81.98C234.109 82.0125 233.575 81.8531 233.14 81.53C232.738 81.1709 232.494 80.6679 232.46 80.13V80.16ZM220 70.54V73.11C220.498 72.2205 221.159 71.4332 221.95 70.79C222.42 70.4408 222.985 70.2421 223.57 70.22C223.768 70.2096 223.966 70.2418 224.15 70.3142C224.335 70.3867 224.502 70.4977 224.64 70.64C224.783 70.7976 224.893 70.9824 224.964 71.1834C225.034 71.3844 225.064 71.5975 225.05 71.81C225.077 72.2603 224.938 72.7048 224.66 73.06C224.545 73.1979 224.402 73.3089 224.239 73.3849C224.077 73.461 223.899 73.5003 223.72 73.5C223.315 73.5066 222.922 73.3602 222.62 73.09C222.445 72.9306 222.261 72.7804 222.07 72.64C221.986 72.5867 221.889 72.5589 221.79 72.56C221.548 72.5683 221.317 72.6642 221.14 72.83C220.784 73.1406 220.523 73.5465 220.39 74C220.129 74.8314 220.001 75.6987 220.01 76.57V79.83C219.994 80.129 220.021 80.4287 220.09 80.72C220.176 80.9231 220.328 81.0918 220.52 81.2C220.838 81.3266 221.178 81.3911 221.52 81.39V81.81H215.4V81.39C215.585 81.3955 215.77 81.3629 215.942 81.294C216.114 81.2252 216.27 81.1217 216.4 80.99C216.634 80.4136 216.723 79.7888 216.66 79.17V72.93C216.685 72.5107 216.651 72.09 216.56 71.68C216.498 71.4809 216.376 71.3061 216.21 71.18C215.96 71.0472 215.683 70.972 215.4 70.96V70.54H220ZM212.88 70.54V79.46C212.824 79.9928 212.921 80.5304 213.16 81.01C213.466 81.2703 213.859 81.4059 214.26 81.39V81.81H208.13V81.39C208.339 81.3987 208.547 81.3641 208.741 81.2884C208.936 81.2127 209.112 81.0974 209.26 80.95C209.482 80.4867 209.568 79.9703 209.51 79.46V72.88C209.568 72.3493 209.467 71.8132 209.22 71.34C208.921 71.0749 208.529 70.9384 208.13 70.96V70.54H212.88ZM211.19 65.09C211.682 65.1082 212.146 65.3185 212.485 65.6755C212.823 66.0326 213.008 66.5081 213 67C213.006 67.2448 212.96 67.488 212.865 67.7137C212.77 67.9394 212.629 68.1426 212.45 68.31C212.278 68.4851 212.072 68.624 211.846 68.7185C211.619 68.8129 211.376 68.8611 211.13 68.86C210.886 68.8632 210.643 68.816 210.418 68.7214C210.192 68.6267 209.989 68.4867 209.82 68.31C209.641 68.1426 209.5 67.9394 209.405 67.7137C209.31 67.488 209.264 67.2448 209.27 67C209.265 66.7539 209.312 66.5095 209.407 66.2823C209.501 66.0551 209.642 65.85 209.82 65.68C209.986 65.4915 210.191 65.3412 210.42 65.2393C210.65 65.1375 210.899 65.0865 211.15 65.09H211.19ZM204.1 75C204.137 74.1081 204.066 73.215 203.89 72.34C203.783 71.919 203.554 71.5395 203.23 71.25C203.038 71.0954 202.796 71.0171 202.55 71.03C202.345 71.0387 202.146 71.0992 201.971 71.2059C201.796 71.3126 201.651 71.462 201.55 71.64C201.033 72.5302 200.786 73.5518 200.84 74.58V75H204.1ZM207.1 75.79H200.92C200.916 77.0657 201.335 78.3069 202.11 79.32C202.344 79.6293 202.646 79.8805 202.993 80.054C203.34 80.2274 203.722 80.3185 204.11 80.32C204.581 80.3261 205.042 80.1864 205.43 79.92C205.94 79.5226 206.368 79.0302 206.69 78.47L207.1 78.75C206.664 79.7773 205.976 80.6783 205.1 81.37C204.35 81.8938 203.454 82.1668 202.54 82.15C201.793 82.1893 201.049 82.0317 200.382 81.693C199.715 81.3543 199.149 80.8463 198.74 80.22C198.029 79.0691 197.681 77.7313 197.74 76.38C197.655 74.7503 198.199 73.1503 199.26 71.91C199.7 71.3908 200.246 70.9728 200.862 70.6845C201.479 70.3963 202.15 70.2447 202.83 70.24C203.402 70.2383 203.968 70.3629 204.486 70.6049C205.005 70.8469 205.464 71.2003 205.83 71.64C206.705 72.8325 207.137 74.2932 207.05 75.77L207.1 75.79ZM191.73 70.56V73.13C192.242 72.2361 192.921 71.4486 193.73 70.81C194.196 70.4599 194.758 70.2609 195.34 70.24C195.539 70.2308 195.738 70.2634 195.924 70.3357C196.11 70.408 196.279 70.5185 196.42 70.66C196.703 70.9818 196.847 71.4025 196.82 71.83C196.847 72.2803 196.708 72.7248 196.43 73.08C196.315 73.2179 196.172 73.3289 196.009 73.4049C195.847 73.481 195.669 73.5203 195.49 73.52C195.085 73.5247 194.693 73.3785 194.39 73.11C194.215 72.9506 194.031 72.8004 193.84 72.66C193.76 72.608 193.666 72.5802 193.57 72.58C193.324 72.5858 193.089 72.6819 192.91 72.85C192.554 73.1605 192.293 73.5665 192.16 74.02C191.899 74.8514 191.771 75.7187 191.78 76.59V79.85C191.76 80.1496 191.79 80.4505 191.87 80.74C191.954 80.9416 192.101 81.1101 192.29 81.22C192.608 81.3455 192.948 81.4099 193.29 81.41V81.83H187.18V81.41C187.365 81.4155 187.55 81.3829 187.722 81.314C187.894 81.2452 188.05 81.1417 188.18 81.01C188.419 80.435 188.508 79.8089 188.44 79.19V72.93C188.465 72.5107 188.431 72.09 188.34 71.68C188.286 71.4801 188.166 71.3041 188 71.18C187.749 71.0502 187.473 70.9752 187.19 70.96V70.54L191.73 70.56ZM182.73 75C182.767 74.1081 182.696 73.215 182.52 72.34C182.413 71.919 182.184 71.5395 181.86 71.25C181.668 71.0954 181.426 71.0171 181.18 71.03C180.975 71.0387 180.776 71.0992 180.601 71.2059C180.426 71.3126 180.281 71.462 180.18 71.64C179.663 72.5302 179.416 73.5518 179.47 74.58V75H182.73ZM185.73 75.79H179.54C179.536 77.0657 179.955 78.3069 180.73 79.32C180.964 79.6293 181.266 79.8805 181.613 80.054C181.96 80.2274 182.342 80.3185 182.73 80.32C183.201 80.3275 183.662 80.1876 184.05 79.92C184.56 79.5226 184.988 79.0302 185.31 78.47L185.73 78.75C185.29 79.775 184.603 80.6751 183.73 81.37C182.727 82.0379 181.504 82.2912 180.318 82.0767C179.132 81.8623 178.076 81.1968 177.37 80.22C176.659 79.0691 176.311 77.7313 176.37 76.38C176.285 74.7503 176.829 73.1503 177.89 71.91C178.33 71.3908 178.876 70.9728 179.492 70.6845C180.109 70.3963 180.78 70.2447 181.46 70.24C182.032 70.2383 182.598 70.3629 183.116 70.6049C183.635 70.8469 184.094 71.2003 184.46 71.64C185.31 72.8426 185.719 74.301 185.62 75.77L185.73 75.79ZM166.84 66.4V73.47H167.44C167.86 73.4966 168.28 73.4317 168.672 73.2797C169.064 73.1278 169.418 72.8924 169.71 72.59C170.304 71.8175 170.589 70.8514 170.51 69.88C170.591 68.9239 170.305 67.973 169.71 67.22C169.395 66.9191 169.021 66.6879 168.611 66.5415C168.2 66.395 167.764 66.3366 167.33 66.37L166.84 66.4ZM166.84 74.4V79C166.8 79.565 166.854 80.1328 167 80.68C167.125 80.9242 167.329 81.1183 167.58 81.23C168.067 81.4049 168.584 81.4764 169.1 81.44V81.86H160.8V81.44C161.32 81.4813 161.843 81.4061 162.33 81.22C162.576 81.1052 162.776 80.9116 162.9 80.67C163.047 80.1263 163.101 79.5617 163.06 79V68.32C163.1 67.755 163.046 67.1872 162.9 66.64C162.776 66.3984 162.576 66.2048 162.33 66.09C161.84 65.9163 161.319 65.8448 160.8 65.88V65.46H167.92C170.273 65.46 171.957 65.88 172.97 66.72C173.451 67.0863 173.84 67.5602 174.106 68.1036C174.372 68.6471 174.507 69.2451 174.5 69.85C174.521 70.8532 174.164 71.8276 173.5 72.58C172.781 73.3708 171.828 73.9105 170.78 74.12C169.481 74.3599 168.16 74.4571 166.84 74.41V74.4ZM150.5 75C150.537 74.1081 150.466 73.215 150.29 72.34C150.18 71.9207 149.95 71.5421 149.63 71.25C149.456 71.0959 149.233 71.0075 149 71C148.795 71.0078 148.596 71.0679 148.421 71.1747C148.245 71.2815 148.101 71.4314 148 71.61C147.483 72.5002 147.236 73.5218 147.29 74.55V75H150.5ZM153.45 75.79H147.27C147.266 77.0657 147.685 78.3069 148.46 79.32C148.694 79.6293 148.996 79.8805 149.343 80.054C149.69 80.2274 150.072 80.3185 150.46 80.32C150.931 80.3261 151.392 80.1864 151.78 79.92C152.277 79.513 152.692 79.0138 153 78.45L153.41 78.73C152.974 79.7573 152.286 80.6583 151.41 81.35C150.657 81.8752 149.758 82.1483 148.84 82.13C148.095 82.1675 147.353 82.0091 146.688 81.6704C146.023 81.3318 145.458 80.8248 145.05 80.2C144.339 79.0491 143.991 77.7113 144.05 76.36C143.965 74.7303 144.509 73.1303 145.57 71.89C146.01 71.3708 146.556 70.9528 147.172 70.6645C147.789 70.3763 148.46 70.2247 149.14 70.22C149.712 70.2183 150.278 70.3429 150.796 70.5849C151.315 70.8269 151.774 71.1803 152.14 71.62C153.052 72.8059 153.516 74.2755 153.45 75.77V75.79ZM137.75 73.13C137.163 71.99 136.443 71.42 135.59 71.42C135.323 71.4099 135.06 71.4949 134.85 71.66C134.496 72.0234 134.247 72.4762 134.13 72.97C133.913 73.9105 133.818 74.8752 133.85 75.84C133.809 76.8992 133.913 77.9591 134.16 78.99C134.296 79.5516 134.591 80.0621 135.01 80.46C135.226 80.62 135.491 80.7011 135.76 80.69C136.47 80.69 137.13 80.14 137.76 79.03L137.75 73.13ZM141.12 65.48V78.48C141.099 78.9881 141.126 79.497 141.2 80C141.246 80.2332 141.374 80.4424 141.56 80.59C141.849 80.7459 142.172 80.8284 142.5 80.83V81.25L137.75 82.16V80.34C137.331 80.8966 136.816 81.3741 136.23 81.75C135.772 82.0057 135.255 82.1367 134.73 82.13C134.043 82.1401 133.365 81.9666 132.768 81.6273C132.17 81.288 131.674 80.7953 131.33 80.2C130.629 79.0486 130.282 77.717 130.33 76.37C130.313 75.2558 130.524 74.1499 130.95 73.12C131.306 72.2645 131.899 71.5288 132.66 71C133.343 70.5234 134.157 70.2685 134.99 70.27C135.484 70.26 135.974 70.3662 136.42 70.58C136.925 70.8649 137.375 71.2374 137.75 71.68V68.2C137.779 67.6841 137.742 67.1666 137.64 66.66C137.557 66.4442 137.401 66.264 137.2 66.15C136.858 66.0103 136.488 65.9521 136.12 65.98V65.46L141.12 65.48Z" fill="#C6C6C6"/>
<path d="M265.85 42.38L262.18 31.64L257.94 42.38H265.85ZM275.24 52.72H268V51.72H268.47C268.7 51.72 268.81 51.5 268.81 51.06C268.811 50.9064 268.784 50.7539 268.73 50.61L266.31 43.61H257.48C256.719 45.47 256.25 47.4366 256.09 49.44C256.076 49.7516 256.128 50.0627 256.243 50.3524C256.359 50.6421 256.535 50.9038 256.76 51.12C257.23 51.5436 257.848 51.7662 258.48 51.74H259.54V52.74H250.54V51.74C252.06 51.66 253.433 50.05 254.66 46.91L262.93 26.91H264.12L271.27 46.42C271.633 47.5501 272.098 48.6447 272.66 49.69C273.45 51 274.32 51.69 275.29 51.69L275.24 52.72ZM249.24 47.79C244.97 51.46 241.09 53.3 237.57 53.3C236.018 53.3394 234.477 53.0259 233.063 52.3833C231.65 51.7406 230.401 50.7855 229.41 49.59C227.396 47.1844 226.329 44.1264 226.41 40.99C226.345 38.489 226.941 36.0151 228.139 33.8185C229.336 31.6218 231.093 29.7803 233.23 28.48C235.567 26.9882 238.298 26.2323 241.07 26.31C243.637 26.2939 246.188 26.7201 248.61 27.57V33.66H247.2C247.142 32.7427 246.871 31.8514 246.41 31.0565C245.948 30.2617 245.308 29.585 244.54 29.08C242.986 28.0519 241.152 27.5313 239.29 27.59C237.936 27.5472 236.592 27.8333 235.373 28.4237C234.154 29.0141 233.096 29.8913 232.29 30.98C230.675 33.211 229.851 35.9175 229.95 38.67C229.862 41.6038 230.787 44.4784 232.57 46.81C233.453 47.9581 234.597 48.8803 235.906 49.5009C237.214 50.1215 238.652 50.4228 240.1 50.38C243.08 50.38 246.143 49.11 249.29 46.57L249.24 47.79ZM223.74 52.72H213.88V51.72C214.751 51.8071 215.623 51.5525 216.31 51.01C216.809 50.2773 217.032 49.3916 216.94 48.51V31.06C217.034 30.1814 216.811 29.2981 216.31 28.57C215.614 28.0446 214.749 27.7952 213.88 27.87V26.87H223.74V27.87C222.868 27.7917 221.998 28.0413 221.3 28.57C220.803 29.2995 220.583 30.1826 220.68 31.06V48.54C220.68 50.61 221.68 51.69 223.74 51.75V52.72ZM212.5 45.33L211 52.73H194.33V51.73C195.202 51.8192 196.074 51.5644 196.76 51.02C197.268 50.2912 197.495 49.4033 197.4 48.52V31.07C197.497 30.1929 197.269 29.3107 196.76 28.59C196.073 28.0467 195.202 27.7889 194.33 27.87V26.87H204.24V27.87C203.361 27.7846 202.482 28.0347 201.78 28.57C201.274 29.2993 201.05 30.1878 201.15 31.07V51.75H203.78C207.85 51.75 210.28 49.61 211.04 45.33H212.5ZM180.42 19.55C180.343 20.0502 180.091 20.507 179.71 20.84L176.3 24.64L175.45 24.05L178.04 19.25C178.36 18.66 178.75 18.36 179.19 18.36C179.511 18.3629 179.818 18.4881 180.05 18.71C180.167 18.8159 180.261 18.9456 180.325 19.0904C180.389 19.2351 180.421 19.3918 180.42 19.55V19.55ZM188.09 42.14C188.104 39.7223 187.581 37.3316 186.56 35.14C185.574 32.9298 183.929 31.0785 181.85 29.84C180.228 28.8277 178.37 28.2555 176.46 28.18C175.253 28.1378 174.051 28.3696 172.946 28.858C171.841 29.3464 170.861 30.0787 170.08 31C168.531 32.8888 167.727 35.2792 167.82 37.72C167.761 41.1184 168.857 44.4363 170.93 47.13C171.913 48.5001 173.211 49.6135 174.715 50.3759C176.219 51.1383 177.884 51.5273 179.57 51.51C180.753 51.5383 181.927 51.2985 183.005 50.8083C184.082 50.3182 185.034 49.5906 185.79 48.68C187.331 46.8549 188.149 44.528 188.09 42.14V42.14ZM191.5 38.59C191.489 41.2936 190.705 43.9376 189.24 46.21C187.839 48.5288 185.82 50.4123 183.41 51.65C181.304 52.7346 178.969 53.3003 176.6 53.3C174.992 53.3257 173.395 53.0279 171.905 52.4244C170.414 51.8209 169.06 50.9239 167.923 49.7868C166.786 48.6497 165.889 47.2957 165.286 45.8051C164.682 44.3146 164.384 42.7179 164.41 41.11C164.403 39.1811 164.784 37.2705 165.532 35.4923C166.279 33.714 167.377 32.1046 168.76 30.76C170.064 29.3478 171.648 28.2227 173.411 27.4566C175.174 26.6904 177.078 26.2999 179 26.31C181.082 26.2442 183.145 26.7145 184.993 27.6759C186.84 28.6373 188.409 30.0574 189.55 31.8C190.89 33.8058 191.571 36.1791 191.5 38.59V38.59ZM162.75 33.66H161.32C161.28 29.8 159.237 27.87 155.19 27.87H154.1V48.54C154.1 50.62 155.1 51.7 157.16 51.75V52.75H147.29V51.75C148.162 51.8403 149.034 51.5854 149.72 51.04C150.228 50.3112 150.455 49.4233 150.36 48.54V27.87H149C145.267 27.87 143.343 29.8 143.23 33.66H141.82V26.9H162.82L162.75 33.66ZM131.91 42.38L128.23 31.64L124 42.38H131.91ZM141.29 52.72H134V51.72H134.47C134.7 51.72 134.82 51.5 134.82 51.06C134.817 50.9058 134.787 50.7534 134.73 50.61L132.31 43.61H123.49C122.729 45.47 122.26 47.4366 122.1 49.44C122.086 49.7507 122.137 50.061 122.251 50.3505C122.364 50.64 122.538 50.9022 122.76 51.12C123.232 51.5409 123.848 51.763 124.48 51.74H125.55V52.74H116.55V51.74C118.07 51.66 119.443 50.05 120.67 46.91L128.81 26.83H130L137.29 46.45C137.644 47.5834 138.109 48.6787 138.68 49.72C139.46 51.03 140.34 51.72 141.3 51.72L141.29 52.72ZM115.29 47.79C111.03 51.4633 107.143 53.3 103.63 53.3C102.078 53.3408 100.536 53.0281 99.1225 52.3853C97.7088 51.7426 96.4598 50.7867 95.47 49.59C93.4568 47.1839 92.3901 44.1262 92.47 40.99C92.4069 38.4882 93.0052 36.0141 94.2045 33.8175C95.4037 31.6209 97.1614 29.7798 99.3 28.48C101.633 26.9873 104.361 26.2312 107.13 26.31C109.7 26.2947 112.254 26.7209 114.68 27.57V33.66H113.24C113.182 32.7427 112.911 31.8514 112.45 31.0565C111.988 30.2617 111.348 29.585 110.58 29.08C109.026 28.0519 107.192 27.5313 105.33 27.59C103.976 27.5498 102.633 27.837 101.415 28.4272C100.196 29.0174 99.1377 29.8931 98.33 30.98C96.7227 33.2143 95.9031 35.9193 96 38.67C95.907 41.6045 96.8327 44.4807 98.62 46.81C99.5023 47.9593 100.645 48.8824 101.954 49.5031C103.264 50.1238 104.702 50.4244 106.15 50.38C109.117 50.38 112.177 49.11 115.33 46.57L115.29 47.79Z" fill="white" stroke="white" stroke-miterlimit="10"/>
<path d="M265.85 42.38L262.18 31.64L257.94 42.38H265.85ZM275.24 52.72H268V51.72H268.47C268.7 51.72 268.81 51.5 268.81 51.06C268.811 50.9064 268.784 50.7539 268.73 50.61L266.31 43.61H257.48C256.719 45.47 256.25 47.4366 256.09 49.44C256.076 49.7516 256.128 50.0627 256.243 50.3524C256.359 50.6421 256.535 50.9038 256.76 51.12C257.23 51.5436 257.848 51.7662 258.48 51.74H259.54V52.74H250.54V51.74C252.06 51.66 253.433 50.05 254.66 46.91L262.93 26.91H264.12L271.27 46.42C271.633 47.5501 272.098 48.6447 272.66 49.69C273.45 51 274.32 51.69 275.29 51.69L275.24 52.72ZM249.24 47.79C244.97 51.46 241.09 53.3 237.57 53.3C236.018 53.3394 234.477 53.0259 233.063 52.3833C231.65 51.7406 230.401 50.7855 229.41 49.59C227.396 47.1844 226.329 44.1264 226.41 40.99C226.345 38.489 226.941 36.0151 228.139 33.8185C229.336 31.6218 231.093 29.7803 233.23 28.48C235.567 26.9882 238.298 26.2323 241.07 26.31C243.637 26.2939 246.188 26.7201 248.61 27.57V33.66H247.2C247.142 32.7427 246.871 31.8514 246.41 31.0565C245.948 30.2617 245.308 29.585 244.54 29.08C242.986 28.0519 241.152 27.5313 239.29 27.59C237.936 27.5472 236.592 27.8333 235.373 28.4237C234.154 29.0141 233.096 29.8913 232.29 30.98C230.675 33.211 229.851 35.9175 229.95 38.67C229.862 41.6038 230.787 44.4784 232.57 46.81C233.453 47.9581 234.597 48.8803 235.906 49.5009C237.214 50.1215 238.652 50.4228 240.1 50.38C243.08 50.38 246.143 49.11 249.29 46.57L249.24 47.79ZM223.74 52.72H213.88V51.72C214.751 51.8071 215.623 51.5525 216.31 51.01C216.809 50.2773 217.032 49.3916 216.94 48.51V31.06C217.034 30.1814 216.811 29.2981 216.31 28.57C215.614 28.0446 214.749 27.7952 213.88 27.87V26.87H223.74V27.87C222.868 27.7917 221.998 28.0413 221.3 28.57C220.803 29.2995 220.583 30.1826 220.68 31.06V48.54C220.68 50.61 221.68 51.69 223.74 51.75V52.72ZM212.5 45.33L211 52.73H194.33V51.73C195.202 51.8192 196.074 51.5644 196.76 51.02C197.268 50.2912 197.495 49.4033 197.4 48.52V31.07C197.497 30.1929 197.269 29.3107 196.76 28.59C196.073 28.0467 195.202 27.7889 194.33 27.87V26.87H204.24V27.87C203.361 27.7846 202.482 28.0347 201.78 28.57C201.274 29.2993 201.05 30.1878 201.15 31.07V51.75H203.78C207.85 51.75 210.28 49.61 211.04 45.33H212.5ZM180.42 19.55C180.343 20.0502 180.091 20.507 179.71 20.84L176.3 24.64L175.45 24.05L178.04 19.25C178.36 18.66 178.75 18.36 179.19 18.36C179.511 18.3629 179.818 18.4881 180.05 18.71C180.167 18.8159 180.261 18.9456 180.325 19.0904C180.389 19.2351 180.421 19.3918 180.42 19.55V19.55ZM188.09 42.14C188.104 39.7223 187.581 37.3316 186.56 35.14C185.574 32.9298 183.929 31.0785 181.85 29.84C180.228 28.8277 178.37 28.2555 176.46 28.18C175.253 28.1378 174.051 28.3696 172.946 28.858C171.841 29.3464 170.861 30.0787 170.08 31C168.531 32.8888 167.727 35.2792 167.82 37.72C167.761 41.1184 168.857 44.4363 170.93 47.13C171.913 48.5001 173.211 49.6135 174.715 50.3759C176.219 51.1383 177.884 51.5273 179.57 51.51C180.753 51.5383 181.927 51.2985 183.005 50.8083C184.082 50.3182 185.034 49.5906 185.79 48.68C187.331 46.8549 188.149 44.528 188.09 42.14V42.14ZM191.5 38.59C191.489 41.2936 190.705 43.9376 189.24 46.21C187.839 48.5288 185.82 50.4123 183.41 51.65C181.304 52.7346 178.969 53.3003 176.6 53.3C174.992 53.3257 173.395 53.0279 171.905 52.4244C170.414 51.8209 169.06 50.9239 167.923 49.7868C166.786 48.6497 165.889 47.2957 165.286 45.8051C164.682 44.3146 164.384 42.7179 164.41 41.11C164.403 39.1811 164.784 37.2705 165.532 35.4923C166.279 33.714 167.377 32.1046 168.76 30.76C170.064 29.3478 171.648 28.2227 173.411 27.4566C175.174 26.6904 177.078 26.2999 179 26.31C181.082 26.2442 183.145 26.7145 184.993 27.6759C186.84 28.6373 188.409 30.0574 189.55 31.8C190.89 33.8058 191.571 36.1791 191.5 38.59V38.59ZM162.75 33.66H161.32C161.28 29.8 159.237 27.87 155.19 27.87H154.1V48.54C154.1 50.62 155.1 51.7 157.16 51.75V52.75H147.29V51.75C148.162 51.8403 149.034 51.5854 149.72 51.04C150.228 50.3112 150.455 49.4233 150.36 48.54V27.87H149C145.267 27.87 143.343 29.8 143.23 33.66H141.82V26.9H162.82L162.75 33.66ZM131.91 42.38L128.23 31.64L124 42.38H131.91ZM141.29 52.72H134V51.72H134.47C134.7 51.72 134.82 51.5 134.82 51.06C134.817 50.9058 134.787 50.7534 134.73 50.61L132.31 43.61H123.49C122.729 45.47 122.26 47.4366 122.1 49.44C122.086 49.7507 122.137 50.061 122.251 50.3505C122.364 50.64 122.538 50.9022 122.76 51.12C123.232 51.5409 123.848 51.763 124.48 51.74H125.55V52.74H116.55V51.74C118.07 51.66 119.443 50.05 120.67 46.91L128.81 26.83H130L137.29 46.45C137.644 47.5834 138.109 48.6787 138.68 49.72C139.46 51.03 140.34 51.72 141.3 51.72L141.29 52.72ZM115.29 47.79C111.03 51.4633 107.143 53.3 103.63 53.3C102.078 53.3408 100.536 53.0281 99.1225 52.3853C97.7088 51.7426 96.4598 50.7867 95.47 49.59C93.4568 47.1839 92.3901 44.1262 92.47 40.99C92.4069 38.4882 93.0052 36.0141 94.2045 33.8175C95.4037 31.6209 97.1614 29.7798 99.3 28.48C101.633 26.9873 104.361 26.2312 107.13 26.31C109.7 26.2947 112.254 26.7209 114.68 27.57V33.66H113.24C113.182 32.7427 112.911 31.8514 112.45 31.0565C111.988 30.2617 111.348 29.585 110.58 29.08C109.026 28.0519 107.192 27.5313 105.33 27.59C103.976 27.5498 102.633 27.837 101.415 28.4272C100.196 29.0174 99.1377 29.8931 98.33 30.98C96.7227 33.2143 95.9031 35.9193 96 38.67C95.907 41.6045 96.8327 44.4807 98.62 46.81C99.5023 47.9593 100.645 48.8824 101.954 49.5031C103.264 50.1238 104.702 50.4244 106.15 50.38C109.117 50.38 112.177 49.11 115.33 46.57L115.29 47.79Z" stroke="white" stroke-width="0.92" stroke-miterlimit="22.93"/>
<path d="M143.89 92.68V98.31H142.75L140.58 94.51C140.573 94.5731 140.573 94.6369 140.58 94.7C140.584 94.7799 140.584 94.8601 140.58 94.94V98.31H139.58V92.68H141L142.9 96C142.893 95.8768 142.893 95.7532 142.9 95.63V92.68H143.89ZM137.36 90.75L137.68 91.44L135.87 92.21L135.66 91.75L137.36 90.75ZM136.36 93.67C135.67 93.67 135.36 94.28 135.36 95.49C135.36 96.7 135.7 97.32 136.36 97.32C137.02 97.32 137.36 96.71 137.36 95.5C137.36 94.29 137 93.67 136.33 93.67H136.36ZM136.36 98.39C136.02 98.409 135.681 98.3409 135.375 98.1921C135.068 98.0434 134.805 97.8189 134.61 97.54C134.18 96.9411 133.958 96.2172 133.98 95.48C133.954 94.7422 134.175 94.0169 134.61 93.42C134.821 93.1479 135.096 92.9312 135.409 92.7884C135.723 92.6456 136.066 92.5809 136.41 92.6C136.756 92.5808 137.101 92.6518 137.411 92.806C137.722 92.9603 137.986 93.1926 138.18 93.48C138.58 94.0695 138.789 94.7676 138.78 95.48C138.806 96.2147 138.592 96.938 138.17 97.54C137.955 97.8301 137.669 98.0604 137.34 98.2091C137.011 98.3579 136.65 98.4201 136.29 98.39H136.36ZM133.13 92.68V98.31H131.81V92.68H133.13ZM131 94.78L129.62 94.87C129.62 94.07 129.31 93.67 128.69 93.67C128 93.67 127.69 94.28 127.69 95.51C127.642 96.0038 127.739 96.5009 127.97 96.94C128.058 97.0633 128.176 97.1626 128.312 97.2289C128.448 97.2953 128.599 97.3266 128.75 97.32C129.3 97.32 129.63 96.97 129.75 96.26L131.03 96.34C130.99 96.9286 130.721 97.478 130.28 97.87C129.789 98.2475 129.175 98.4307 128.557 98.3846C127.939 98.3385 127.36 98.0663 126.93 97.62C126.43 97.0272 126.179 96.2638 126.23 95.49C126.201 94.7377 126.442 93.9998 126.91 93.41C127.133 93.1422 127.416 92.9297 127.735 92.7891C128.054 92.6486 128.402 92.5839 128.75 92.6C129.044 92.5833 129.338 92.6278 129.614 92.7305C129.89 92.8332 130.141 92.992 130.353 93.1968C130.564 93.4017 130.731 93.6481 130.842 93.9206C130.954 94.1931 131.007 94.4857 131 94.78V94.78ZM122.79 96.11H124L123.41 94.11L122.79 96.11ZM124.3 92.68L126 98.31H124.59L124.24 97.15H122.43L122.07 98.31H121L122.8 92.68H124.3ZM120.82 94.78L119.44 94.87C119.44 94.07 119.11 93.67 118.52 93.67C117.93 93.67 117.52 94.28 117.52 95.51C117.472 96.0038 117.569 96.5009 117.8 96.94C117.886 97.0653 118.003 97.1662 118.14 97.2328C118.277 97.2994 118.428 97.3294 118.58 97.32C119.12 97.32 119.45 96.97 119.58 96.26L120.86 96.34C120.82 96.9286 120.551 97.478 120.11 97.87C119.68 98.2235 119.136 98.4083 118.58 98.39C118.239 98.4036 117.899 98.3416 117.584 98.2085C117.269 98.0754 116.988 97.8744 116.76 97.62C116.27 97.0222 116.024 96.2615 116.07 95.49C116.038 94.7389 116.276 94.0012 116.74 93.41C116.965 93.142 117.25 92.9295 117.57 92.789C117.891 92.6485 118.24 92.5839 118.59 92.6C118.881 92.589 119.17 92.6376 119.442 92.7429C119.713 92.8482 119.959 93.0078 120.166 93.2121C120.373 93.4163 120.537 93.6608 120.645 93.9305C120.754 94.2001 120.807 94.4892 120.8 94.78H120.82ZM115.25 92.68V96.19C115.271 96.6193 115.203 97.0483 115.05 97.45C114.898 97.7514 114.648 97.9915 114.34 98.13C113.922 98.317 113.467 98.4059 113.01 98.39C112.567 98.4093 112.126 98.3272 111.72 98.15C111.411 98.0094 111.158 97.7702 111 97.47C110.818 97.0691 110.735 96.6298 110.76 96.19V92.68H112.19V96.19C112.18 96.4156 112.203 96.6414 112.26 96.86C112.32 97.0064 112.43 97.1268 112.57 97.2C112.744 97.285 112.936 97.3262 113.13 97.32C113.337 97.3291 113.543 97.2879 113.73 97.2C113.801 97.1686 113.865 97.1232 113.919 97.0665C113.972 97.0098 114.013 96.943 114.04 96.87C114.103 96.6491 114.13 96.4195 114.12 96.19V92.68H115.25ZM106.64 93.68V97.22H107.18C107.39 97.2317 107.599 97.1879 107.787 97.0932C107.975 96.9984 108.135 96.8559 108.25 96.68C108.488 96.2998 108.61 95.8584 108.6 95.41C108.601 95.086 108.533 94.7654 108.4 94.47C108.304 94.218 108.128 94.004 107.9 93.86C107.688 93.735 107.446 93.6726 107.2 93.68H106.64ZM105.35 92.68H107.07C107.607 92.6481 108.143 92.7513 108.63 92.98C109.007 93.2027 109.323 93.5153 109.55 93.89C109.838 94.3692 109.98 94.9215 109.96 95.48C109.98 96.2135 109.723 96.9275 109.24 97.48C108.99 97.7581 108.68 97.9756 108.334 98.116C107.987 98.2563 107.613 98.3159 107.24 98.29H105.31L105.35 92.68ZM104.56 93.76H101.89V94.91H104V95.91H101.9V97.2H104.57V98.31H100.57V92.68H104.57L104.56 93.76ZM99.41 92.68V98.31H98.25L96.08 94.51C96.0726 94.5731 96.0726 94.6369 96.08 94.7C96.0842 94.7799 96.0842 94.8601 96.08 94.94V98.31H95.08V92.68H96.5L98.4 96C98.3931 95.8768 98.3931 95.7532 98.4 95.63V92.68H99.41ZM93.97 92.68V98.31H92.63V92.68H93.97ZM87.88 98.31L86.51 93.72V98.31H85.38V92.68H87.43L88.43 96.05L89.43 92.68H91.43V98.31H90.18V93.72L88.77 98.31H87.88ZM80 93.67C79.31 93.67 79 94.28 79 95.49C79 96.7 79.34 97.32 80 97.32C80.66 97.32 81 96.71 81 95.5C81 94.29 80.69 93.67 80 93.67ZM80 98.39C79.6592 98.4051 79.32 98.3354 79.0128 98.187C78.7056 98.0387 78.44 97.8163 78.24 97.54C77.8171 96.9379 77.5997 96.2155 77.62 95.48C77.5937 94.7422 77.8155 94.0169 78.25 93.42C78.4564 93.155 78.7225 92.9426 79.0266 92.8001C79.3308 92.6576 79.6643 92.589 80 92.6C80.346 92.5808 80.691 92.6518 81.0013 92.806C81.3116 92.9603 81.5765 93.1926 81.77 93.48C82.17 94.0695 82.3794 94.7676 82.37 95.48C82.3977 96.2165 82.1796 96.9412 81.75 97.54C81.5491 97.813 81.2848 98.033 80.9799 98.181C80.6751 98.3291 80.3387 98.4008 80 98.39V98.39ZM73.7 93.72V97.26H74.24C74.45 97.2717 74.6594 97.2279 74.8472 97.1331C75.035 97.0384 75.1946 96.8959 75.31 96.72C75.548 96.3398 75.6697 95.8984 75.66 95.45C75.6615 95.1259 75.5933 94.8054 75.46 94.51C75.3712 94.2652 75.211 94.0527 75 93.9C74.7842 93.7762 74.5387 93.7139 74.29 93.72H73.7ZM72.41 92.72H74.13C74.6671 92.6855 75.204 92.7888 75.69 93.02C76.0671 93.2426 76.3832 93.5553 76.61 93.93C76.8831 94.3997 77.0183 94.9369 77 95.48C77.0149 96.2109 76.7624 96.9221 76.29 97.48C76.0392 97.757 75.729 97.9737 75.3827 98.1139C75.0364 98.2542 74.6628 98.3144 74.29 98.29H72.41V92.72ZM68.55 96.15H69.74L69.15 94.15L68.55 96.15ZM70.06 92.72L71.81 98.35H70.39L70.05 97.19H68.23L67.88 98.35H66.72L68.52 92.72H70.06ZM64.37 97.2H66.61V98.31H63V92.68H64.33L64.37 97.2ZM61.91 92.68V98.31H60.6V92.68H61.91ZM59.56 95.3V98.3H59C58.9585 98.0775 58.8949 97.8598 58.81 97.65C58.63 97.883 58.3977 98.0704 58.1319 98.1972C57.8662 98.324 57.5744 98.3866 57.28 98.38C56.9535 98.3949 56.6282 98.332 56.3309 98.1964C56.0335 98.0608 55.7727 97.8563 55.57 97.6C55.1477 97.0203 54.9296 96.3169 54.95 95.6C54.9123 94.8283 55.1458 94.0677 55.61 93.45C55.8178 93.1816 56.0871 92.967 56.3951 92.8243C56.7031 92.6816 57.0409 92.615 57.38 92.63C57.9357 92.6063 58.4795 92.7959 58.9 93.16C59.2941 93.5273 59.5426 94.0243 59.6 94.56L58.35 94.72C58.25 94.04 57.93 93.72 57.35 93.72C57.1821 93.7148 57.0162 93.7582 56.8725 93.8452C56.7288 93.9321 56.6133 94.0588 56.54 94.21C56.3366 94.6404 56.2437 95.1147 56.27 95.59C56.2426 96.0484 56.343 96.5053 56.56 96.91C56.6513 97.0523 56.7771 97.1691 56.9257 97.2495C57.0744 97.3299 57.241 97.3714 57.41 97.37C57.6416 97.3763 57.8669 97.2941 58.04 97.14C58.1406 97.0466 58.2182 96.9312 58.2667 96.8028C58.3153 96.6745 58.3335 96.5366 58.32 96.4H57.25V95.4L59.56 95.3ZM54.06 92.68V98.31H52.74V92.68H54.06ZM52.23 92.68L50.54 98.31H49.12L47.43 92.68H48.83L49.96 96.68L51.13 92.68H52.23Z" fill="white"/>
</g>
<defs>
<clipPath id="clip0_1_2">
<rect width="280.92" height="98.39" fill="white"/>
</clipPath>
</defs>
</svg>
